<svg xmlns="http://www.w3.org/2000/svg" width="1000" height="536" viewBox="0 0 1000 536" role="img" aria-label="Category distribution 2009-2025">
<rect width="100%" height="100%" fill="#ffffff"/>
<text x="32" y="38" fill="#0f172a" font-size="24" font-weight="800">AI Paper Taxonomy, 2009-2025</text>
<text x="32" y="60" fill="#64748b" font-size="14">Selected papers by category</text>
<text x="32" y="96" fill="#172033" font-size="15">Foundation Models and Large Language Models</text><rect x="420" y="76" width="520" height="26" rx="5" fill="#2563eb"/><text x="950" y="96" fill="#172033" font-size="15" font-weight="700">410</text><text x="32" y="140" fill="#172033" font-size="15">Vision and Multimodal Learning</text><rect x="420" y="120" width="487" height="26" rx="5" fill="#0f766e"/><text x="917" y="140" fill="#172033" font-size="15" font-weight="700">384</text><text x="32" y="184" fill="#172033" font-size="15">General AI Methods and Systems</text><rect x="420" y="164" width="328" height="26" rx="5" fill="#a855f7"/><text x="758" y="184" fill="#172033" font-size="15" font-weight="700">259</text><text x="32" y="228" fill="#172033" font-size="15">AI for Science, Healthcare, and Robotics</text><rect x="420" y="208" width="225" height="26" rx="5" fill="#f59e0b"/><text x="655" y="228" fill="#172033" font-size="15" font-weight="700">178</text><text x="32" y="272" fill="#172033" font-size="15">Natural Language Processing and Knowledge</text><rect x="420" y="252" width="128" height="26" rx="5" fill="#dc2626"/><text x="558" y="272" fill="#172033" font-size="15" font-weight="700">101</text><text x="32" y="316" fill="#172033" font-size="15">Reinforcement Learning and Agents</text><rect x="420" y="296" width="128" height="26" rx="5" fill="#0891b2"/><text x="558" y="316" fill="#172033" font-size="15" font-weight="700">101</text><text x="32" y="360" fill="#172033" font-size="15">Graph Learning, Recommendation, and Core Methods</text><rect x="420" y="340" width="123" height="26" rx="5" fill="#be123c"/><text x="553" y="360" fill="#172033" font-size="15" font-weight="700">97</text><text x="32" y="404" fill="#172033" font-size="15">Generative Models and Synthetic Media</text><rect x="420" y="384" width="78" height="26" rx="5" fill="#16a34a"/><text x="508" y="404" fill="#172033" font-size="15" font-weight="700">62</text><text x="32" y="448" fill="#172033" font-size="15">Trustworthy, Explainable, and Responsible AI</text><rect x="420" y="428" width="74" height="26" rx="5" fill="#64748b"/><text x="504" y="448" fill="#172033" font-size="15" font-weight="700">59</text><text x="32" y="492" fill="#172033" font-size="15">Representation, Self-Supervised, and Transfer Learni</text><rect x="420" y="472" width="62" height="26" rx="5" fill="#2563eb"/><text x="492" y="492" fill="#172033" font-size="15" font-weight="700">49</text>
</svg>