<svg xmlns="http://www.w3.org/2000/svg" width="1000" height="536" viewBox="0 0 1000 536" role="img" aria-label="Category distribution 2008-2019">
<rect width="100%" height="100%" fill="#ffffff"/>
<text x="32" y="38" fill="#0f172a" font-size="24" font-weight="800">AI Paper Taxonomy, 2008-2019</text>
<text x="32" y="60" fill="#64748b" font-size="14">Selected papers by category</text>
<text x="32" y="96" fill="#172033" font-size="15">Vision and Multimodal Learning</text><rect x="420" y="76" width="520" height="26" rx="5" fill="#2563eb"/><text x="950" y="96" fill="#172033" font-size="15" font-weight="700">323</text><text x="32" y="140" fill="#172033" font-size="15">General AI Methods and Systems</text><rect x="420" y="120" width="447" height="26" rx="5" fill="#0f766e"/><text x="877" y="140" fill="#172033" font-size="15" font-weight="700">278</text><text x="32" y="184" fill="#172033" font-size="15">AI for Science, Healthcare, and Robotics</text><rect x="420" y="164" width="206" height="26" rx="5" fill="#a855f7"/><text x="636" y="184" fill="#172033" font-size="15" font-weight="700">128</text><text x="32" y="228" fill="#172033" font-size="15">Graph Learning, Recommendation, and Core Methods</text><rect x="420" y="208" width="149" height="26" rx="5" fill="#f59e0b"/><text x="579" y="228" fill="#172033" font-size="15" font-weight="700">93</text><text x="32" y="272" fill="#172033" font-size="15">Natural Language Processing and Knowledge</text><rect x="420" y="252" width="141" height="26" rx="5" fill="#dc2626"/><text x="571" y="272" fill="#172033" font-size="15" font-weight="700">88</text><text x="32" y="316" fill="#172033" font-size="15">Reinforcement Learning and Agents</text><rect x="420" y="296" width="128" height="26" rx="5" fill="#0891b2"/><text x="558" y="316" fill="#172033" font-size="15" font-weight="700">80</text><text x="32" y="360" fill="#172033" font-size="15">Foundation Models and Large Language Models</text><rect x="420" y="340" width="122" height="26" rx="5" fill="#be123c"/><text x="552" y="360" fill="#172033" font-size="15" font-weight="700">76</text><text x="32" y="404" fill="#172033" font-size="15">Trustworthy, Explainable, and Responsible AI</text><rect x="420" y="384" width="83" height="26" rx="5" fill="#16a34a"/><text x="513" y="404" fill="#172033" font-size="15" font-weight="700">52</text><text x="32" y="448" fill="#172033" font-size="15">Generative Models and Synthetic Media</text><rect x="420" y="428" width="72" height="26" rx="5" fill="#64748b"/><text x="502" y="448" fill="#172033" font-size="15" font-weight="700">45</text><text x="32" y="492" fill="#172033" font-size="15">Representation, Self-Supervised, and Transfer Learni</text><rect x="420" y="472" width="59" height="26" rx="5" fill="#2563eb"/><text x="489" y="492" fill="#172033" font-size="15" font-weight="700">37</text>
</svg>