<svg xmlns="http://www.w3.org/2000/svg" width="1000" height="536" viewBox="0 0 1000 536" role="img" aria-label="Category distribution 2004-2008">
<rect width="100%" height="100%" fill="#ffffff"/>
<text x="32" y="38" fill="#0f172a" font-size="24" font-weight="800">AI Paper Taxonomy, 2004-2008</text>
<text x="32" y="60" fill="#64748b" font-size="14">Selected papers by category</text>
<text x="32" y="96" fill="#172033" font-size="15">General AI Methods and Systems</text><rect x="420" y="76" width="520" height="26" rx="5" fill="#2563eb"/><text x="950" y="96" fill="#172033" font-size="15" font-weight="700">225</text><text x="32" y="140" fill="#172033" font-size="15">Vision and Multimodal Learning</text><rect x="420" y="120" width="143" height="26" rx="5" fill="#0f766e"/><text x="573" y="140" fill="#172033" font-size="15" font-weight="700">62</text><text x="32" y="184" fill="#172033" font-size="15">Graph Learning, Recommendation, and Core Methods</text><rect x="420" y="164" width="138" height="26" rx="5" fill="#a855f7"/><text x="568" y="184" fill="#172033" font-size="15" font-weight="700">60</text><text x="32" y="228" fill="#172033" font-size="15">AI for Science, Healthcare, and Robotics</text><rect x="420" y="208" width="129" height="26" rx="5" fill="#f59e0b"/><text x="559" y="228" fill="#172033" font-size="15" font-weight="700">56</text><text x="32" y="272" fill="#172033" font-size="15">Reinforcement Learning and Agents</text><rect x="420" y="252" width="73" height="26" rx="5" fill="#dc2626"/><text x="503" y="272" fill="#172033" font-size="15" font-weight="700">32</text><text x="32" y="316" fill="#172033" font-size="15">Natural Language Processing and Knowledge</text><rect x="420" y="296" width="55" height="26" rx="5" fill="#0891b2"/><text x="485" y="316" fill="#172033" font-size="15" font-weight="700">24</text><text x="32" y="360" fill="#172033" font-size="15">Trustworthy, Explainable, and Responsible AI</text><rect x="420" y="340" width="34" height="26" rx="5" fill="#be123c"/><text x="464" y="360" fill="#172033" font-size="15" font-weight="700">15</text><text x="32" y="404" fill="#172033" font-size="15">Foundation Models and Large Language Models</text><rect x="420" y="384" width="32" height="26" rx="5" fill="#16a34a"/><text x="462" y="404" fill="#172033" font-size="15" font-weight="700">14</text><text x="32" y="448" fill="#172033" font-size="15">Generative Models and Synthetic Media</text><rect x="420" y="428" width="23" height="26" rx="5" fill="#64748b"/><text x="453" y="448" fill="#172033" font-size="15" font-weight="700">10</text><text x="32" y="492" fill="#172033" font-size="15">Representation, Self-Supervised, and Transfer Learni</text><rect x="420" y="472" width="4" height="26" rx="5" fill="#2563eb"/><text x="434" y="492" fill="#172033" font-size="15" font-weight="700">2</text>
</svg>