<svg xmlns="http://www.w3.org/2000/svg" width="1000" height="536" viewBox="0 0 1000 536" role="img" aria-label="Category distribution 2000-2026">
<rect width="100%" height="100%" fill="#ffffff"/>
<text x="32" y="38" fill="#0f172a" font-size="24" font-weight="800">AI Paper Taxonomy, All years (2000-2026)</text>
<text x="32" y="60" fill="#64748b" font-size="14">Selected papers by category</text>
<text x="32" y="96" fill="#172033" font-size="15">General AI Methods and Systems</text><rect x="420" y="76" width="520" height="26" rx="5" fill="#2563eb"/><text x="950" y="96" fill="#172033" font-size="15" font-weight="700">688</text><text x="32" y="140" fill="#172033" font-size="15">Foundation Models and Large Language Models</text><rect x="420" y="120" width="370" height="26" rx="5" fill="#0f766e"/><text x="800" y="140" fill="#172033" font-size="15" font-weight="700">490</text><text x="32" y="184" fill="#172033" font-size="15">Vision and Multimodal Learning</text><rect x="420" y="164" width="360" height="26" rx="5" fill="#a855f7"/><text x="790" y="184" fill="#172033" font-size="15" font-weight="700">477</text><text x="32" y="228" fill="#172033" font-size="15">AI for Science, Healthcare, and Robotics</text><rect x="420" y="208" width="210" height="26" rx="5" fill="#f59e0b"/><text x="640" y="228" fill="#172033" font-size="15" font-weight="700">279</text><text x="32" y="272" fill="#172033" font-size="15">Graph Learning, Recommendation, and Core Methods</text><rect x="420" y="252" width="147" height="26" rx="5" fill="#dc2626"/><text x="577" y="272" fill="#172033" font-size="15" font-weight="700">195</text><text x="32" y="316" fill="#172033" font-size="15">Reinforcement Learning and Agents</text><rect x="420" y="296" width="132" height="26" rx="5" fill="#0891b2"/><text x="562" y="316" fill="#172033" font-size="15" font-weight="700">175</text><text x="32" y="360" fill="#172033" font-size="15">Natural Language Processing and Knowledge</text><rect x="420" y="340" width="120" height="26" rx="5" fill="#be123c"/><text x="550" y="360" fill="#172033" font-size="15" font-weight="700">160</text><text x="32" y="404" fill="#172033" font-size="15">Trustworthy, Explainable, and Responsible AI</text><rect x="420" y="384" width="74" height="26" rx="5" fill="#16a34a"/><text x="504" y="404" fill="#172033" font-size="15" font-weight="700">98</text><text x="32" y="448" fill="#172033" font-size="15">Generative Models and Synthetic Media</text><rect x="420" y="428" width="62" height="26" rx="5" fill="#64748b"/><text x="492" y="448" fill="#172033" font-size="15" font-weight="700">83</text><text x="32" y="492" fill="#172033" font-size="15">Representation, Self-Supervised, and Transfer Learni</text><rect x="420" y="472" width="41" height="26" rx="5" fill="#2563eb"/><text x="471" y="492" fill="#172033" font-size="15" font-weight="700">55</text>
</svg>