<svg xmlns="http://www.w3.org/2000/svg" width="1000" height="536" viewBox="0 0 1000 536" role="img" aria-label="Category distribution 2011-2025">
<rect width="100%" height="100%" fill="#ffffff"/>
<text x="32" y="38" fill="#0f172a" font-size="24" font-weight="800">AI Paper Taxonomy, 2011-2025</text>
<text x="32" y="60" fill="#64748b" font-size="14">Selected papers by category</text>
<text x="32" y="96" fill="#172033" font-size="15">Foundation Models and Large Language Models</text><rect x="420" y="76" width="520" height="26" rx="5" fill="#2563eb"/><text x="950" y="96" fill="#172033" font-size="15" font-weight="700">404</text><text x="32" y="140" fill="#172033" font-size="15">Vision and Multimodal Learning</text><rect x="420" y="120" width="458" height="26" rx="5" fill="#0f766e"/><text x="888" y="140" fill="#172033" font-size="15" font-weight="700">356</text><text x="32" y="184" fill="#172033" font-size="15">General AI Methods and Systems</text><rect x="420" y="164" width="226" height="26" rx="5" fill="#a855f7"/><text x="656" y="184" fill="#172033" font-size="15" font-weight="700">176</text><text x="32" y="228" fill="#172033" font-size="15">AI for Science, Healthcare, and Robotics</text><rect x="420" y="208" width="209" height="26" rx="5" fill="#f59e0b"/><text x="639" y="228" fill="#172033" font-size="15" font-weight="700">163</text><text x="32" y="272" fill="#172033" font-size="15">Natural Language Processing and Knowledge</text><rect x="420" y="252" width="117" height="26" rx="5" fill="#dc2626"/><text x="547" y="272" fill="#172033" font-size="15" font-weight="700">91</text><text x="32" y="316" fill="#172033" font-size="15">Reinforcement Learning and Agents</text><rect x="420" y="296" width="104" height="26" rx="5" fill="#0891b2"/><text x="534" y="316" fill="#172033" font-size="15" font-weight="700">81</text><text x="32" y="360" fill="#172033" font-size="15">Graph Learning, Recommendation, and Core Methods</text><rect x="420" y="340" width="101" height="26" rx="5" fill="#be123c"/><text x="531" y="360" fill="#172033" font-size="15" font-weight="700">79</text><text x="32" y="404" fill="#172033" font-size="15">Generative Models and Synthetic Media</text><rect x="420" y="384" width="70" height="26" rx="5" fill="#16a34a"/><text x="500" y="404" fill="#172033" font-size="15" font-weight="700">55</text><text x="32" y="448" fill="#172033" font-size="15">Trustworthy, Explainable, and Responsible AI</text><rect x="420" y="428" width="65" height="26" rx="5" fill="#64748b"/><text x="495" y="448" fill="#172033" font-size="15" font-weight="700">51</text><text x="32" y="492" fill="#172033" font-size="15">Representation, Self-Supervised, and Transfer Learni</text><rect x="420" y="472" width="56" height="26" rx="5" fill="#2563eb"/><text x="486" y="492" fill="#172033" font-size="15" font-weight="700">44</text>
</svg>