<svg xmlns="http://www.w3.org/2000/svg" width="1000" height="536" viewBox="0 0 1000 536" role="img" aria-label="Category distribution 2006-2012">
<rect width="100%" height="100%" fill="#ffffff"/>
<text x="32" y="38" fill="#0f172a" font-size="24" font-weight="800">AI Paper Taxonomy, 2006-2012</text>
<text x="32" y="60" fill="#64748b" font-size="14">Selected papers by category</text>
<text x="32" y="96" fill="#172033" font-size="15">General AI Methods and Systems</text><rect x="420" y="76" width="520" height="26" rx="5" fill="#2563eb"/><text x="950" y="96" fill="#172033" font-size="15" font-weight="700">284</text><text x="32" y="140" fill="#172033" font-size="15">Vision and Multimodal Learning</text><rect x="420" y="120" width="168" height="26" rx="5" fill="#0f766e"/><text x="598" y="140" fill="#172033" font-size="15" font-weight="700">92</text><text x="32" y="184" fill="#172033" font-size="15">AI for Science, Healthcare, and Robotics</text><rect x="420" y="164" width="150" height="26" rx="5" fill="#a855f7"/><text x="580" y="184" fill="#172033" font-size="15" font-weight="700">82</text><text x="32" y="228" fill="#172033" font-size="15">Graph Learning, Recommendation, and Core Methods</text><rect x="420" y="208" width="140" height="26" rx="5" fill="#f59e0b"/><text x="570" y="228" fill="#172033" font-size="15" font-weight="700">77</text><text x="32" y="272" fill="#172033" font-size="15">Reinforcement Learning and Agents</text><rect x="420" y="252" width="86" height="26" rx="5" fill="#dc2626"/><text x="516" y="272" fill="#172033" font-size="15" font-weight="700">47</text><text x="32" y="316" fill="#172033" font-size="15">Natural Language Processing and Knowledge</text><rect x="420" y="296" width="82" height="26" rx="5" fill="#0891b2"/><text x="512" y="316" fill="#172033" font-size="15" font-weight="700">45</text><text x="32" y="360" fill="#172033" font-size="15">Foundation Models and Large Language Models</text><rect x="420" y="340" width="54" height="26" rx="5" fill="#be123c"/><text x="484" y="360" fill="#172033" font-size="15" font-weight="700">30</text><text x="32" y="404" fill="#172033" font-size="15">Trustworthy, Explainable, and Responsible AI</text><rect x="420" y="384" width="32" height="26" rx="5" fill="#16a34a"/><text x="462" y="404" fill="#172033" font-size="15" font-weight="700">18</text><text x="32" y="448" fill="#172033" font-size="15">Generative Models and Synthetic Media</text><rect x="420" y="428" width="27" height="26" rx="5" fill="#64748b"/><text x="457" y="448" fill="#172033" font-size="15" font-weight="700">15</text><text x="32" y="492" fill="#172033" font-size="15">Representation, Self-Supervised, and Transfer Learni</text><rect x="420" y="472" width="18" height="26" rx="5" fill="#2563eb"/><text x="448" y="492" fill="#172033" font-size="15" font-weight="700">10</text>
</svg>