<svg xmlns="http://www.w3.org/2000/svg" width="1000" height="536" viewBox="0 0 1000 536" role="img" aria-label="Category distribution 2010-2017">
<rect width="100%" height="100%" fill="#ffffff"/>
<text x="32" y="38" fill="#0f172a" font-size="24" font-weight="800">AI Paper Taxonomy, 2010-2017</text>
<text x="32" y="60" fill="#64748b" font-size="14">Selected papers by category</text>
<text x="32" y="96" fill="#172033" font-size="15">Vision and Multimodal Learning</text><rect x="420" y="76" width="520" height="26" rx="5" fill="#2563eb"/><text x="950" y="96" fill="#172033" font-size="15" font-weight="700">234</text><text x="32" y="140" fill="#172033" font-size="15">General AI Methods and Systems</text><rect x="420" y="120" width="413" height="26" rx="5" fill="#0f766e"/><text x="843" y="140" fill="#172033" font-size="15" font-weight="700">186</text><text x="32" y="184" fill="#172033" font-size="15">AI for Science, Healthcare, and Robotics</text><rect x="420" y="164" width="162" height="26" rx="5" fill="#a855f7"/><text x="592" y="184" fill="#172033" font-size="15" font-weight="700">73</text><text x="32" y="228" fill="#172033" font-size="15">Natural Language Processing and Knowledge</text><rect x="420" y="208" width="160" height="26" rx="5" fill="#f59e0b"/><text x="590" y="228" fill="#172033" font-size="15" font-weight="700">72</text><text x="32" y="272" fill="#172033" font-size="15">Graph Learning, Recommendation, and Core Methods</text><rect x="420" y="252" width="122" height="26" rx="5" fill="#dc2626"/><text x="552" y="272" fill="#172033" font-size="15" font-weight="700">55</text><text x="32" y="316" fill="#172033" font-size="15">Foundation Models and Large Language Models</text><rect x="420" y="296" width="106" height="26" rx="5" fill="#0891b2"/><text x="536" y="316" fill="#172033" font-size="15" font-weight="700">48</text><text x="32" y="360" fill="#172033" font-size="15">Reinforcement Learning and Agents</text><rect x="420" y="340" width="95" height="26" rx="5" fill="#be123c"/><text x="525" y="360" fill="#172033" font-size="15" font-weight="700">43</text><text x="32" y="404" fill="#172033" font-size="15">Representation, Self-Supervised, and Transfer Learni</text><rect x="420" y="384" width="71" height="26" rx="5" fill="#16a34a"/><text x="501" y="404" fill="#172033" font-size="15" font-weight="700">32</text><text x="32" y="448" fill="#172033" font-size="15">Trustworthy, Explainable, and Responsible AI</text><rect x="420" y="428" width="64" height="26" rx="5" fill="#64748b"/><text x="494" y="448" fill="#172033" font-size="15" font-weight="700">29</text><text x="32" y="492" fill="#172033" font-size="15">Generative Models and Synthetic Media</text><rect x="420" y="472" width="62" height="26" rx="5" fill="#2563eb"/><text x="492" y="492" fill="#172033" font-size="15" font-weight="700">28</text>
</svg>