<svg xmlns="http://www.w3.org/2000/svg" width="1000" height="536" viewBox="0 0 1000 536" role="img" aria-label="Category distribution 2000-2003">
<rect width="100%" height="100%" fill="#ffffff"/>
<text x="32" y="38" fill="#0f172a" font-size="24" font-weight="800">AI Paper Taxonomy, 2000-2003</text>
<text x="32" y="60" fill="#64748b" font-size="14">Selected papers by category</text>
<text x="32" y="96" fill="#172033" font-size="15">General AI Methods and Systems</text><rect x="420" y="76" width="520" height="26" rx="5" fill="#2563eb"/><text x="950" y="96" fill="#172033" font-size="15" font-weight="700">193</text><text x="32" y="140" fill="#172033" font-size="15">AI for Science, Healthcare, and Robotics</text><rect x="420" y="120" width="102" height="26" rx="5" fill="#0f766e"/><text x="532" y="140" fill="#172033" font-size="15" font-weight="700">38</text><text x="32" y="184" fill="#172033" font-size="15">Reinforcement Learning and Agents</text><rect x="420" y="164" width="96" height="26" rx="5" fill="#a855f7"/><text x="526" y="184" fill="#172033" font-size="15" font-weight="700">36</text><text x="32" y="228" fill="#172033" font-size="15">Natural Language Processing and Knowledge</text><rect x="420" y="208" width="94" height="26" rx="5" fill="#f59e0b"/><text x="524" y="228" fill="#172033" font-size="15" font-weight="700">35</text><text x="32" y="272" fill="#172033" font-size="15">Graph Learning, Recommendation, and Core Methods</text><rect x="420" y="252" width="83" height="26" rx="5" fill="#dc2626"/><text x="513" y="272" fill="#172033" font-size="15" font-weight="700">31</text><text x="32" y="316" fill="#172033" font-size="15">Vision and Multimodal Learning</text><rect x="420" y="296" width="75" height="26" rx="5" fill="#0891b2"/><text x="505" y="316" fill="#172033" font-size="15" font-weight="700">28</text><text x="32" y="360" fill="#172033" font-size="15">Trustworthy, Explainable, and Responsible AI</text><rect x="420" y="340" width="56" height="26" rx="5" fill="#be123c"/><text x="486" y="360" fill="#172033" font-size="15" font-weight="700">21</text><text x="32" y="404" fill="#172033" font-size="15">Foundation Models and Large Language Models</text><rect x="420" y="384" width="21" height="26" rx="5" fill="#16a34a"/><text x="451" y="404" fill="#172033" font-size="15" font-weight="700">8</text><text x="32" y="448" fill="#172033" font-size="15">Generative Models and Synthetic Media</text><rect x="420" y="428" width="18" height="26" rx="5" fill="#64748b"/><text x="448" y="448" fill="#172033" font-size="15" font-weight="700">7</text><text x="32" y="492" fill="#172033" font-size="15">Representation, Self-Supervised, and Transfer Learni</text><rect x="420" y="472" width="8" height="26" rx="5" fill="#2563eb"/><text x="438" y="492" fill="#172033" font-size="15" font-weight="700">3</text>
</svg>