<svg xmlns="http://www.w3.org/2000/svg" width="1000" height="360" viewBox="0 0 1000 360" role="img" aria-label="Category distribution 2025-2025">
<rect width="100%" height="100%" fill="#ffffff"/>
<text x="32" y="38" fill="#0f172a" font-size="24" font-weight="800">AI Paper Taxonomy, 2025</text>
<text x="32" y="60" fill="#64748b" font-size="14">Selected papers by category</text>
<text x="32" y="96" fill="#172033" font-size="15">Foundation Models and Large Language Models</text><rect x="420" y="76" width="520" height="26" rx="5" fill="#2563eb"/><text x="950" y="96" fill="#172033" font-size="15" font-weight="700">75</text><text x="32" y="140" fill="#172033" font-size="15">Reinforcement Learning and Agents</text><rect x="420" y="120" width="76" height="26" rx="5" fill="#0f766e"/><text x="506" y="140" fill="#172033" font-size="15" font-weight="700">11</text><text x="32" y="184" fill="#172033" font-size="15">AI for Science, Healthcare, and Robotics</text><rect x="420" y="164" width="55" height="26" rx="5" fill="#a855f7"/><text x="485" y="184" fill="#172033" font-size="15" font-weight="700">8</text><text x="32" y="228" fill="#172033" font-size="15">Vision and Multimodal Learning</text><rect x="420" y="208" width="20" height="26" rx="5" fill="#f59e0b"/><text x="450" y="228" fill="#172033" font-size="15" font-weight="700">3</text><text x="32" y="272" fill="#172033" font-size="15">Generative Models and Synthetic Media</text><rect x="420" y="252" width="13" height="26" rx="5" fill="#dc2626"/><text x="443" y="272" fill="#172033" font-size="15" font-weight="700">2</text><text x="32" y="316" fill="#172033" font-size="15">Trustworthy, Explainable, and Responsible AI</text><rect x="420" y="296" width="6" height="26" rx="5" fill="#0891b2"/><text x="436" y="316" fill="#172033" font-size="15" font-weight="700">1</text>
</svg>