<svg xmlns="http://www.w3.org/2000/svg" width="1000" height="536" viewBox="0 0 1000 536" role="img" aria-label="Category distribution 2023-2026">
<rect width="100%" height="100%" fill="#ffffff"/>
<text x="32" y="38" fill="#0f172a" font-size="24" font-weight="800">AI Paper Taxonomy, 2023-2026</text>
<text x="32" y="60" fill="#64748b" font-size="14">Selected papers by category</text>
<text x="32" y="96" fill="#172033" font-size="15">Foundation Models and Large Language Models</text><rect x="420" y="76" width="520" height="26" rx="5" fill="#2563eb"/><text x="950" y="96" fill="#172033" font-size="15" font-weight="700">278</text><text x="32" y="140" fill="#172033" font-size="15">AI for Science, Healthcare, and Robotics</text><rect x="420" y="120" width="54" height="26" rx="5" fill="#0f766e"/><text x="484" y="140" fill="#172033" font-size="15" font-weight="700">29</text><text x="32" y="184" fill="#172033" font-size="15">Vision and Multimodal Learning</text><rect x="420" y="164" width="41" height="26" rx="5" fill="#a855f7"/><text x="471" y="184" fill="#172033" font-size="15" font-weight="700">22</text><text x="32" y="228" fill="#172033" font-size="15">Reinforcement Learning and Agents</text><rect x="420" y="208" width="39" height="26" rx="5" fill="#f59e0b"/><text x="469" y="228" fill="#172033" font-size="15" font-weight="700">21</text><text x="32" y="272" fill="#172033" font-size="15">General AI Methods and Systems</text><rect x="420" y="252" width="26" height="26" rx="5" fill="#dc2626"/><text x="456" y="272" fill="#172033" font-size="15" font-weight="700">14</text><text x="32" y="316" fill="#172033" font-size="15">Generative Models and Synthetic Media</text><rect x="420" y="296" width="24" height="26" rx="5" fill="#0891b2"/><text x="454" y="316" fill="#172033" font-size="15" font-weight="700">13</text><text x="32" y="360" fill="#172033" font-size="15">Trustworthy, Explainable, and Responsible AI</text><rect x="420" y="340" width="14" height="26" rx="5" fill="#be123c"/><text x="444" y="360" fill="#172033" font-size="15" font-weight="700">8</text><text x="32" y="404" fill="#172033" font-size="15">Graph Learning, Recommendation, and Core Methods</text><rect x="420" y="384" width="14" height="26" rx="5" fill="#16a34a"/><text x="444" y="404" fill="#172033" font-size="15" font-weight="700">8</text><text x="32" y="448" fill="#172033" font-size="15">Natural Language Processing and Knowledge</text><rect x="420" y="428" width="7" height="26" rx="5" fill="#64748b"/><text x="437" y="448" fill="#172033" font-size="15" font-weight="700">4</text><text x="32" y="492" fill="#172033" font-size="15">Representation, Self-Supervised, and Transfer Learni</text><rect x="420" y="472" width="5" height="26" rx="5" fill="#2563eb"/><text x="435" y="492" fill="#172033" font-size="15" font-weight="700">3</text>
</svg>