<svg xmlns="http://www.w3.org/2000/svg" width="1000" height="536" viewBox="0 0 1000 536" role="img" aria-label="Category distribution 2007-2023">
<rect width="100%" height="100%" fill="#ffffff"/>
<text x="32" y="38" fill="#0f172a" font-size="24" font-weight="800">AI Paper Taxonomy, 2007-2023</text>
<text x="32" y="60" fill="#64748b" font-size="14">Selected papers by category</text>
<text x="32" y="96" fill="#172033" font-size="15">Vision and Multimodal Learning</text><rect x="420" y="76" width="520" height="26" rx="5" fill="#2563eb"/><text x="950" y="96" fill="#172033" font-size="15" font-weight="700">393</text><text x="32" y="140" fill="#172033" font-size="15">General AI Methods and Systems</text><rect x="420" y="120" width="444" height="26" rx="5" fill="#0f766e"/><text x="874" y="140" fill="#172033" font-size="15" font-weight="700">336</text><text x="32" y="184" fill="#172033" font-size="15">Foundation Models and Large Language Models</text><rect x="420" y="164" width="362" height="26" rx="5" fill="#a855f7"/><text x="792" y="184" fill="#172033" font-size="15" font-weight="700">274</text><text x="32" y="228" fill="#172033" font-size="15">AI for Science, Healthcare, and Robotics</text><rect x="420" y="208" width="256" height="26" rx="5" fill="#f59e0b"/><text x="686" y="228" fill="#172033" font-size="15" font-weight="700">194</text><text x="32" y="272" fill="#172033" font-size="15">Graph Learning, Recommendation, and Core Methods</text><rect x="420" y="252" width="166" height="26" rx="5" fill="#dc2626"/><text x="596" y="272" fill="#172033" font-size="15" font-weight="700">126</text><text x="32" y="316" fill="#172033" font-size="15">Natural Language Processing and Knowledge</text><rect x="420" y="296" width="140" height="26" rx="5" fill="#0891b2"/><text x="570" y="316" fill="#172033" font-size="15" font-weight="700">106</text><text x="32" y="360" fill="#172033" font-size="15">Reinforcement Learning and Agents</text><rect x="420" y="340" width="136" height="26" rx="5" fill="#be123c"/><text x="566" y="360" fill="#172033" font-size="15" font-weight="700">103</text><text x="32" y="404" fill="#172033" font-size="15">Generative Models and Synthetic Media</text><rect x="420" y="384" width="82" height="26" rx="5" fill="#16a34a"/><text x="512" y="404" fill="#172033" font-size="15" font-weight="700">62</text><text x="32" y="448" fill="#172033" font-size="15">Trustworthy, Explainable, and Responsible AI</text><rect x="420" y="428" width="76" height="26" rx="5" fill="#64748b"/><text x="506" y="448" fill="#172033" font-size="15" font-weight="700">58</text><text x="32" y="492" fill="#172033" font-size="15">Representation, Self-Supervised, and Transfer Learni</text><rect x="420" y="472" width="63" height="26" rx="5" fill="#2563eb"/><text x="493" y="492" fill="#172033" font-size="15" font-weight="700">48</text>
</svg>