<svg xmlns="http://www.w3.org/2000/svg" width="1000" height="536" viewBox="0 0 1000 536" role="img" aria-label="Category distribution 2013-2025">
<rect width="100%" height="100%" fill="#ffffff"/>
<text x="32" y="38" fill="#0f172a" font-size="24" font-weight="800">AI Paper Taxonomy, 2013-2025</text>
<text x="32" y="60" fill="#64748b" font-size="14">Selected papers by category</text>
<text x="32" y="96" fill="#172033" font-size="15">Foundation Models and Large Language Models</text><rect x="420" y="76" width="520" height="26" rx="5" fill="#2563eb"/><text x="950" y="96" fill="#172033" font-size="15" font-weight="700">389</text><text x="32" y="140" fill="#172033" font-size="15">Vision and Multimodal Learning</text><rect x="420" y="120" width="438" height="26" rx="5" fill="#0f766e"/><text x="868" y="140" fill="#172033" font-size="15" font-weight="700">328</text><text x="32" y="184" fill="#172033" font-size="15">AI for Science, Healthcare, and Robotics</text><rect x="420" y="164" width="179" height="26" rx="5" fill="#a855f7"/><text x="609" y="184" fill="#172033" font-size="15" font-weight="700">134</text><text x="32" y="228" fill="#172033" font-size="15">General AI Methods and Systems</text><rect x="420" y="208" width="135" height="26" rx="5" fill="#f59e0b"/><text x="565" y="228" fill="#172033" font-size="15" font-weight="700">101</text><text x="32" y="272" fill="#172033" font-size="15">Reinforcement Learning and Agents</text><rect x="420" y="252" width="101" height="26" rx="5" fill="#dc2626"/><text x="531" y="272" fill="#172033" font-size="15" font-weight="700">76</text><text x="32" y="316" fill="#172033" font-size="15">Natural Language Processing and Knowledge</text><rect x="420" y="296" width="96" height="26" rx="5" fill="#0891b2"/><text x="526" y="316" fill="#172033" font-size="15" font-weight="700">72</text><text x="32" y="360" fill="#172033" font-size="15">Graph Learning, Recommendation, and Core Methods</text><rect x="420" y="340" width="77" height="26" rx="5" fill="#be123c"/><text x="507" y="360" fill="#172033" font-size="15" font-weight="700">58</text><text x="32" y="404" fill="#172033" font-size="15">Generative Models and Synthetic Media</text><rect x="420" y="384" width="72" height="26" rx="5" fill="#16a34a"/><text x="502" y="404" fill="#172033" font-size="15" font-weight="700">54</text><text x="32" y="448" fill="#172033" font-size="15">Trustworthy, Explainable, and Responsible AI</text><rect x="420" y="428" width="65" height="26" rx="5" fill="#64748b"/><text x="495" y="448" fill="#172033" font-size="15" font-weight="700">49</text><text x="32" y="492" fill="#172033" font-size="15">Representation, Self-Supervised, and Transfer Learni</text><rect x="420" y="472" width="52" height="26" rx="5" fill="#2563eb"/><text x="482" y="492" fill="#172033" font-size="15" font-weight="700">39</text>
</svg>