<svg xmlns="http://www.w3.org/2000/svg" width="1000" height="420" viewBox="0 0 1000 420" role="img" aria-label="Yearly citation mass 2000-2014">
<rect width="100%" height="100%" fill="#ffffff"/>
<text x="32" y="38" fill="#0f172a" font-size="24" font-weight="800">Yearly Citation Mass, 2000-2014</text>
<text x="32" y="60" fill="#64748b" font-size="14">Citation counts among visible selected papers</text>
<line x1="80" y1="340" x2="930" y2="340" stroke="#cbd5e1" stroke-width="2"/>
<rect x="80" y="285" width="43" height="55" rx="5" fill="#7c3aed"/><text x="101.5" y="368" text-anchor="middle" fill="#475569" font-size="14">2000</text><text x="101.5" y="277" text-anchor="middle" fill="#172033" font-size="13" font-weight="700">151,750</text><rect x="137" y="268" width="43" height="72" rx="5" fill="#7c3aed"/><text x="158.5" y="368" text-anchor="middle" fill="#475569" font-size="14">2001</text><text x="158.5" y="260" text-anchor="middle" fill="#172033" font-size="13" font-weight="700">199,666</text><rect x="194" y="281" width="43" height="59" rx="5" fill="#7c3aed"/><text x="215.5" y="368" text-anchor="middle" fill="#475569" font-size="14">2002</text><text x="215.5" y="273" text-anchor="middle" fill="#172033" font-size="13" font-weight="700">163,015</text><rect x="251" y="295" width="43" height="45" rx="5" fill="#7c3aed"/><text x="272.5" y="368" text-anchor="middle" fill="#475569" font-size="14">2003</text><text x="272.5" y="287" text-anchor="middle" fill="#172033" font-size="13" font-weight="700">124,417</text><rect x="308" y="289" width="43" height="51" rx="5" fill="#7c3aed"/><text x="329.5" y="368" text-anchor="middle" fill="#475569" font-size="14">2004</text><text x="329.5" y="281" text-anchor="middle" fill="#172033" font-size="13" font-weight="700">142,172</text><rect x="365" y="295" width="43" height="45" rx="5" fill="#7c3aed"/><text x="386.5" y="368" text-anchor="middle" fill="#475569" font-size="14">2005</text><text x="386.5" y="287" text-anchor="middle" fill="#172033" font-size="13" font-weight="700">124,983</text><rect x="422" y="298" width="43" height="42" rx="5" fill="#7c3aed"/><text x="443.5" y="368" text-anchor="middle" fill="#475569" font-size="14">2006</text><text x="443.5" y="290" text-anchor="middle" fill="#172033" font-size="13" font-weight="700">117,674</text><rect x="479" y="294" width="43" height="46" rx="5" fill="#7c3aed"/><text x="500.5" y="368" text-anchor="middle" fill="#475569" font-size="14">2007</text><text x="500.5" y="286" text-anchor="middle" fill="#172033" font-size="13" font-weight="700">128,381</text><rect x="536" y="298" width="43" height="42" rx="5" fill="#7c3aed"/><text x="557.5" y="368" text-anchor="middle" fill="#475569" font-size="14">2008</text><text x="557.5" y="290" text-anchor="middle" fill="#172033" font-size="13" font-weight="700">116,790</text><rect x="593" y="251" width="43" height="89" rx="5" fill="#7c3aed"/><text x="614.5" y="368" text-anchor="middle" fill="#475569" font-size="14">2009</text><text x="614.5" y="243" text-anchor="middle" fill="#172033" font-size="13" font-weight="700">247,309</text><rect x="650" y="273" width="43" height="67" rx="5" fill="#7c3aed"/><text x="671.5" y="368" text-anchor="middle" fill="#475569" font-size="14">2010</text><text x="671.5" y="265" text-anchor="middle" fill="#172033" font-size="13" font-weight="700">184,831</text><rect x="707" y="248" width="43" height="92" rx="5" fill="#7c3aed"/><text x="728.5" y="368" text-anchor="middle" fill="#475569" font-size="14">2011</text><text x="728.5" y="240" text-anchor="middle" fill="#172033" font-size="13" font-weight="700">254,295</text><rect x="764" y="219" width="43" height="121" rx="5" fill="#7c3aed"/><text x="785.5" y="368" text-anchor="middle" fill="#475569" font-size="14">2012</text><text x="785.5" y="211" text-anchor="middle" fill="#172033" font-size="13" font-weight="700">332,579</text><rect x="821" y="241" width="43" height="99" rx="5" fill="#7c3aed"/><text x="842.5" y="368" text-anchor="middle" fill="#475569" font-size="14">2013</text><text x="842.5" y="233" text-anchor="middle" fill="#172033" font-size="13" font-weight="700">274,215</text><rect x="878" y="70" width="43" height="270" rx="5" fill="#7c3aed"/><text x="899.5" y="368" text-anchor="middle" fill="#475569" font-size="14">2014</text><text x="899.5" y="62" text-anchor="middle" fill="#172033" font-size="13" font-weight="700">742,024</text>
</svg>