<svg xmlns="http://www.w3.org/2000/svg" width="1000" height="420" viewBox="0 0 1000 420" role="img" aria-label="Yearly citation mass 2009-2022">
<rect width="100%" height="100%" fill="#ffffff"/>
<text x="32" y="38" fill="#0f172a" font-size="24" font-weight="800">Yearly Citation Mass, 2009-2022</text>
<text x="32" y="60" fill="#64748b" font-size="14">Citation counts among visible selected papers</text>
<line x1="80" y1="340" x2="930" y2="340" stroke="#cbd5e1" stroke-width="2"/>
<rect x="80" y="271" width="47" height="69" rx="5" fill="#7c3aed"/><text x="103.5" y="368" text-anchor="middle" fill="#475569" font-size="14">2009</text><text x="103.5" y="263" text-anchor="middle" fill="#172033" font-size="13" font-weight="700">247,309</text><rect x="141" y="289" width="47" height="51" rx="5" fill="#7c3aed"/><text x="164.5" y="368" text-anchor="middle" fill="#475569" font-size="14">2010</text><text x="164.5" y="281" text-anchor="middle" fill="#172033" font-size="13" font-weight="700">184,831</text><rect x="202" y="269" width="47" height="71" rx="5" fill="#7c3aed"/><text x="225.5" y="368" text-anchor="middle" fill="#475569" font-size="14">2011</text><text x="225.5" y="261" text-anchor="middle" fill="#172033" font-size="13" font-weight="700">254,295</text><rect x="263" y="247" width="47" height="93" rx="5" fill="#7c3aed"/><text x="286.5" y="368" text-anchor="middle" fill="#475569" font-size="14">2012</text><text x="286.5" y="239" text-anchor="middle" fill="#172033" font-size="13" font-weight="700">332,579</text><rect x="324" y="263" width="47" height="77" rx="5" fill="#7c3aed"/><text x="347.5" y="368" text-anchor="middle" fill="#475569" font-size="14">2013</text><text x="347.5" y="255" text-anchor="middle" fill="#172033" font-size="13" font-weight="700">274,215</text><rect x="385" y="132" width="47" height="208" rx="5" fill="#7c3aed"/><text x="408.5" y="368" text-anchor="middle" fill="#475569" font-size="14">2014</text><text x="408.5" y="124" text-anchor="middle" fill="#172033" font-size="13" font-weight="700">742,024</text><rect x="446" y="70" width="47" height="270" rx="5" fill="#7c3aed"/><text x="469.5" y="368" text-anchor="middle" fill="#475569" font-size="14">2015</text><text x="469.5" y="62" text-anchor="middle" fill="#172033" font-size="13" font-weight="700">960,511</text><rect x="507" y="133" width="47" height="207" rx="5" fill="#7c3aed"/><text x="530.5" y="368" text-anchor="middle" fill="#475569" font-size="14">2016</text><text x="530.5" y="125" text-anchor="middle" fill="#172033" font-size="13" font-weight="700">738,490</text><rect x="568" y="123" width="47" height="217" rx="5" fill="#7c3aed"/><text x="591.5" y="368" text-anchor="middle" fill="#475569" font-size="14">2017</text><text x="591.5" y="115" text-anchor="middle" fill="#172033" font-size="13" font-weight="700">775,257</text><rect x="629" y="215" width="47" height="125" rx="5" fill="#7c3aed"/><text x="652.5" y="368" text-anchor="middle" fill="#475569" font-size="14">2018</text><text x="652.5" y="207" text-anchor="middle" fill="#172033" font-size="13" font-weight="700">445,723</text><rect x="690" y="161" width="47" height="179" rx="5" fill="#7c3aed"/><text x="713.5" y="368" text-anchor="middle" fill="#475569" font-size="14">2019</text><text x="713.5" y="153" text-anchor="middle" fill="#172033" font-size="13" font-weight="700">638,014</text><rect x="751" y="218" width="47" height="122" rx="5" fill="#7c3aed"/><text x="774.5" y="368" text-anchor="middle" fill="#475569" font-size="14">2020</text><text x="774.5" y="210" text-anchor="middle" fill="#172033" font-size="13" font-weight="700">436,445</text><rect x="812" y="221" width="47" height="119" rx="5" fill="#7c3aed"/><text x="835.5" y="368" text-anchor="middle" fill="#475569" font-size="14">2021</text><text x="835.5" y="213" text-anchor="middle" fill="#172033" font-size="13" font-weight="700">425,132</text><rect x="873" y="261" width="47" height="79" rx="5" fill="#7c3aed"/><text x="896.5" y="368" text-anchor="middle" fill="#475569" font-size="14">2022</text><text x="896.5" y="253" text-anchor="middle" fill="#172033" font-size="13" font-weight="700">284,273</text>
</svg>