<svg xmlns="http://www.w3.org/2000/svg" width="1000" height="420" viewBox="0 0 1000 420" role="img" aria-label="Yearly citation mass 2002-2019">
<rect width="100%" height="100%" fill="#ffffff"/>
<text x="32" y="38" fill="#0f172a" font-size="24" font-weight="800">Yearly Citation Mass, 2002-2019</text>
<text x="32" y="60" fill="#64748b" font-size="14">Citation counts among visible selected papers</text>
<line x1="80" y1="340" x2="930" y2="340" stroke="#cbd5e1" stroke-width="2"/>
<rect x="80" y="295" width="34" height="45" rx="5" fill="#7c3aed"/><text x="97.0" y="368" text-anchor="middle" fill="#475569" font-size="14">2002</text><text x="97.0" y="287" text-anchor="middle" fill="#172033" font-size="13" font-weight="700">163,015</text><rect x="128" y="306" width="34" height="34" rx="5" fill="#7c3aed"/><text x="145.0" y="368" text-anchor="middle" fill="#475569" font-size="14">2003</text><text x="145.0" y="298" text-anchor="middle" fill="#172033" font-size="13" font-weight="700">124,417</text><rect x="176" y="301" width="34" height="39" rx="5" fill="#7c3aed"/><text x="193.0" y="368" text-anchor="middle" fill="#475569" font-size="14">2004</text><text x="193.0" y="293" text-anchor="middle" fill="#172033" font-size="13" font-weight="700">142,172</text><rect x="224" y="305" width="34" height="35" rx="5" fill="#7c3aed"/><text x="241.0" y="368" text-anchor="middle" fill="#475569" font-size="14">2005</text><text x="241.0" y="297" text-anchor="middle" fill="#172033" font-size="13" font-weight="700">124,983</text><rect x="272" y="307" width="34" height="33" rx="5" fill="#7c3aed"/><text x="289.0" y="368" text-anchor="middle" fill="#475569" font-size="14">2006</text><text x="289.0" y="299" text-anchor="middle" fill="#172033" font-size="13" font-weight="700">117,674</text><rect x="320" y="304" width="34" height="36" rx="5" fill="#7c3aed"/><text x="337.0" y="368" text-anchor="middle" fill="#475569" font-size="14">2007</text><text x="337.0" y="296" text-anchor="middle" fill="#172033" font-size="13" font-weight="700">128,381</text><rect x="368" y="308" width="34" height="32" rx="5" fill="#7c3aed"/><text x="385.0" y="368" text-anchor="middle" fill="#475569" font-size="14">2008</text><text x="385.0" y="300" text-anchor="middle" fill="#172033" font-size="13" font-weight="700">116,790</text><rect x="416" y="271" width="34" height="69" rx="5" fill="#7c3aed"/><text x="433.0" y="368" text-anchor="middle" fill="#475569" font-size="14">2009</text><text x="433.0" y="263" text-anchor="middle" fill="#172033" font-size="13" font-weight="700">247,309</text><rect x="464" y="289" width="34" height="51" rx="5" fill="#7c3aed"/><text x="481.0" y="368" text-anchor="middle" fill="#475569" font-size="14">2010</text><text x="481.0" y="281" text-anchor="middle" fill="#172033" font-size="13" font-weight="700">184,831</text><rect x="512" y="269" width="34" height="71" rx="5" fill="#7c3aed"/><text x="529.0" y="368" text-anchor="middle" fill="#475569" font-size="14">2011</text><text x="529.0" y="261" text-anchor="middle" fill="#172033" font-size="13" font-weight="700">254,295</text><rect x="560" y="247" width="34" height="93" rx="5" fill="#7c3aed"/><text x="577.0" y="368" text-anchor="middle" fill="#475569" font-size="14">2012</text><text x="577.0" y="239" text-anchor="middle" fill="#172033" font-size="13" font-weight="700">332,579</text><rect x="608" y="263" width="34" height="77" rx="5" fill="#7c3aed"/><text x="625.0" y="368" text-anchor="middle" fill="#475569" font-size="14">2013</text><text x="625.0" y="255" text-anchor="middle" fill="#172033" font-size="13" font-weight="700">274,215</text><rect x="656" y="132" width="34" height="208" rx="5" fill="#7c3aed"/><text x="673.0" y="368" text-anchor="middle" fill="#475569" font-size="14">2014</text><text x="673.0" y="124" text-anchor="middle" fill="#172033" font-size="13" font-weight="700">742,024</text><rect x="704" y="70" width="34" height="270" rx="5" fill="#7c3aed"/><text x="721.0" y="368" text-anchor="middle" fill="#475569" font-size="14">2015</text><text x="721.0" y="62" text-anchor="middle" fill="#172033" font-size="13" font-weight="700">960,511</text><rect x="752" y="133" width="34" height="207" rx="5" fill="#7c3aed"/><text x="769.0" y="368" text-anchor="middle" fill="#475569" font-size="14">2016</text><text x="769.0" y="125" text-anchor="middle" fill="#172033" font-size="13" font-weight="700">738,490</text><rect x="800" y="123" width="34" height="217" rx="5" fill="#7c3aed"/><text x="817.0" y="368" text-anchor="middle" fill="#475569" font-size="14">2017</text><text x="817.0" y="115" text-anchor="middle" fill="#172033" font-size="13" font-weight="700">775,257</text><rect x="848" y="215" width="34" height="125" rx="5" fill="#7c3aed"/><text x="865.0" y="368" text-anchor="middle" fill="#475569" font-size="14">2018</text><text x="865.0" y="207" text-anchor="middle" fill="#172033" font-size="13" font-weight="700">445,723</text><rect x="896" y="161" width="34" height="179" rx="5" fill="#7c3aed"/><text x="913.0" y="368" text-anchor="middle" fill="#475569" font-size="14">2019</text><text x="913.0" y="153" text-anchor="middle" fill="#172033" font-size="13" font-weight="700">638,014</text>
</svg>