<svg xmlns="http://www.w3.org/2000/svg" width="1000" height="420" viewBox="0 0 1000 420" role="img" aria-label="Yearly citation mass 2005-2025">
<rect width="100%" height="100%" fill="#ffffff"/>
<text x="32" y="38" fill="#0f172a" font-size="24" font-weight="800">Yearly Citation Mass, 2005-2025</text>
<text x="32" y="60" fill="#64748b" font-size="14">Citation counts among visible selected papers</text>
<line x1="80" y1="340" x2="930" y2="340" stroke="#cbd5e1" stroke-width="2"/>
<rect x="80" y="305" width="27" height="35" rx="5" fill="#7c3aed"/><text x="93.5" y="368" text-anchor="middle" fill="#475569" font-size="14">2005</text><text x="93.5" y="297" text-anchor="middle" fill="#172033" font-size="13" font-weight="700">124,983</text><rect x="121" y="307" width="27" height="33" rx="5" fill="#7c3aed"/><text x="134.5" y="368" text-anchor="middle" fill="#475569" font-size="14">2006</text><text x="134.5" y="299" text-anchor="middle" fill="#172033" font-size="13" font-weight="700">117,674</text><rect x="162" y="304" width="27" height="36" rx="5" fill="#7c3aed"/><text x="175.5" y="368" text-anchor="middle" fill="#475569" font-size="14">2007</text><text x="175.5" y="296" text-anchor="middle" fill="#172033" font-size="13" font-weight="700">128,381</text><rect x="203" y="308" width="27" height="32" rx="5" fill="#7c3aed"/><text x="216.5" y="368" text-anchor="middle" fill="#475569" font-size="14">2008</text><text x="216.5" y="300" text-anchor="middle" fill="#172033" font-size="13" font-weight="700">116,790</text><rect x="244" y="271" width="27" height="69" rx="5" fill="#7c3aed"/><text x="257.5" y="368" text-anchor="middle" fill="#475569" font-size="14">2009</text><text x="257.5" y="263" text-anchor="middle" fill="#172033" font-size="13" font-weight="700">247,309</text><rect x="285" y="289" width="27" height="51" rx="5" fill="#7c3aed"/><text x="298.5" y="368" text-anchor="middle" fill="#475569" font-size="14">2010</text><text x="298.5" y="281" text-anchor="middle" fill="#172033" font-size="13" font-weight="700">184,831</text><rect x="326" y="269" width="27" height="71" rx="5" fill="#7c3aed"/><text x="339.5" y="368" text-anchor="middle" fill="#475569" font-size="14">2011</text><text x="339.5" y="261" text-anchor="middle" fill="#172033" font-size="13" font-weight="700">254,295</text><rect x="367" y="247" width="27" height="93" rx="5" fill="#7c3aed"/><text x="380.5" y="368" text-anchor="middle" fill="#475569" font-size="14">2012</text><text x="380.5" y="239" text-anchor="middle" fill="#172033" font-size="13" font-weight="700">332,579</text><rect x="408" y="263" width="27" height="77" rx="5" fill="#7c3aed"/><text x="421.5" y="368" text-anchor="middle" fill="#475569" font-size="14">2013</text><text x="421.5" y="255" text-anchor="middle" fill="#172033" font-size="13" font-weight="700">274,215</text><rect x="449" y="132" width="27" height="208" rx="5" fill="#7c3aed"/><text x="462.5" y="368" text-anchor="middle" fill="#475569" font-size="14">2014</text><text x="462.5" y="124" text-anchor="middle" fill="#172033" font-size="13" font-weight="700">742,024</text><rect x="490" y="70" width="27" height="270" rx="5" fill="#7c3aed"/><text x="503.5" y="368" text-anchor="middle" fill="#475569" font-size="14">2015</text><text x="503.5" y="62" text-anchor="middle" fill="#172033" font-size="13" font-weight="700">960,511</text><rect x="531" y="133" width="27" height="207" rx="5" fill="#7c3aed"/><text x="544.5" y="368" text-anchor="middle" fill="#475569" font-size="14">2016</text><text x="544.5" y="125" text-anchor="middle" fill="#172033" font-size="13" font-weight="700">738,490</text><rect x="572" y="123" width="27" height="217" rx="5" fill="#7c3aed"/><text x="585.5" y="368" text-anchor="middle" fill="#475569" font-size="14">2017</text><text x="585.5" y="115" text-anchor="middle" fill="#172033" font-size="13" font-weight="700">775,257</text><rect x="613" y="215" width="27" height="125" rx="5" fill="#7c3aed"/><text x="626.5" y="368" text-anchor="middle" fill="#475569" font-size="14">2018</text><text x="626.5" y="207" text-anchor="middle" fill="#172033" font-size="13" font-weight="700">445,723</text><rect x="654" y="161" width="27" height="179" rx="5" fill="#7c3aed"/><text x="667.5" y="368" text-anchor="middle" fill="#475569" font-size="14">2019</text><text x="667.5" y="153" text-anchor="middle" fill="#172033" font-size="13" font-weight="700">638,014</text><rect x="695" y="218" width="27" height="122" rx="5" fill="#7c3aed"/><text x="708.5" y="368" text-anchor="middle" fill="#475569" font-size="14">2020</text><text x="708.5" y="210" text-anchor="middle" fill="#172033" font-size="13" font-weight="700">436,445</text><rect x="736" y="221" width="27" height="119" rx="5" fill="#7c3aed"/><text x="749.5" y="368" text-anchor="middle" fill="#475569" font-size="14">2021</text><text x="749.5" y="213" text-anchor="middle" fill="#172033" font-size="13" font-weight="700">425,132</text><rect x="777" y="261" width="27" height="79" rx="5" fill="#7c3aed"/><text x="790.5" y="368" text-anchor="middle" fill="#475569" font-size="14">2022</text><text x="790.5" y="253" text-anchor="middle" fill="#172033" font-size="13" font-weight="700">284,273</text><rect x="818" y="247" width="27" height="93" rx="5" fill="#7c3aed"/><text x="831.5" y="368" text-anchor="middle" fill="#475569" font-size="14">2023</text><text x="831.5" y="239" text-anchor="middle" fill="#172033" font-size="13" font-weight="700">334,364</text><rect x="859" y="300" width="27" height="40" rx="5" fill="#7c3aed"/><text x="872.5" y="368" text-anchor="middle" fill="#475569" font-size="14">2024</text><text x="872.5" y="292" text-anchor="middle" fill="#172033" font-size="13" font-weight="700">145,505</text><rect x="900" y="320" width="27" height="20" rx="5" fill="#7c3aed"/><text x="913.5" y="368" text-anchor="middle" fill="#475569" font-size="14">2025</text><text x="913.5" y="312" text-anchor="middle" fill="#172033" font-size="13" font-weight="700">72,745</text>
</svg>