<svg xmlns="http://www.w3.org/2000/svg" width="1000" height="420" viewBox="0 0 1000 420" role="img" aria-label="Yearly citation mass 2018-2026">
<rect width="100%" height="100%" fill="#ffffff"/>
<text x="32" y="38" fill="#0f172a" font-size="24" font-weight="800">Yearly Citation Mass, 2018-2026</text>
<text x="32" y="60" fill="#64748b" font-size="14">Citation counts among visible selected papers</text>
<line x1="80" y1="340" x2="930" y2="340" stroke="#cbd5e1" stroke-width="2"/>
<rect x="80" y="152" width="82" height="188" rx="5" fill="#7c3aed"/><text x="121.0" y="368" text-anchor="middle" fill="#475569" font-size="14">2018</text><text x="121.0" y="144" text-anchor="middle" fill="#172033" font-size="13" font-weight="700">445,723</text><rect x="176" y="70" width="82" height="270" rx="5" fill="#7c3aed"/><text x="217.0" y="368" text-anchor="middle" fill="#475569" font-size="14">2019</text><text x="217.0" y="62" text-anchor="middle" fill="#172033" font-size="13" font-weight="700">638,014</text><rect x="272" y="156" width="82" height="184" rx="5" fill="#7c3aed"/><text x="313.0" y="368" text-anchor="middle" fill="#475569" font-size="14">2020</text><text x="313.0" y="148" text-anchor="middle" fill="#172033" font-size="13" font-weight="700">436,445</text><rect x="368" y="161" width="82" height="179" rx="5" fill="#7c3aed"/><text x="409.0" y="368" text-anchor="middle" fill="#475569" font-size="14">2021</text><text x="409.0" y="153" text-anchor="middle" fill="#172033" font-size="13" font-weight="700">425,132</text><rect x="464" y="220" width="82" height="120" rx="5" fill="#7c3aed"/><text x="505.0" y="368" text-anchor="middle" fill="#475569" font-size="14">2022</text><text x="505.0" y="212" text-anchor="middle" fill="#172033" font-size="13" font-weight="700">284,273</text><rect x="560" y="199" width="82" height="141" rx="5" fill="#7c3aed"/><text x="601.0" y="368" text-anchor="middle" fill="#475569" font-size="14">2023</text><text x="601.0" y="191" text-anchor="middle" fill="#172033" font-size="13" font-weight="700">334,364</text><rect x="656" y="279" width="82" height="61" rx="5" fill="#7c3aed"/><text x="697.0" y="368" text-anchor="middle" fill="#475569" font-size="14">2024</text><text x="697.0" y="271" text-anchor="middle" fill="#172033" font-size="13" font-weight="700">145,505</text><rect x="752" y="310" width="82" height="30" rx="5" fill="#7c3aed"/><text x="793.0" y="368" text-anchor="middle" fill="#475569" font-size="14">2025</text><text x="793.0" y="302" text-anchor="middle" fill="#172033" font-size="13" font-weight="700">72,745</text><rect x="848" y="338" width="82" height="2" rx="5" fill="#7c3aed"/><text x="889.0" y="368" text-anchor="middle" fill="#475569" font-size="14">2026</text><text x="889.0" y="330" text-anchor="middle" fill="#172033" font-size="13" font-weight="700">6,582</text>
</svg>