<svg xmlns="http://www.w3.org/2000/svg" width="1000" height="420" viewBox="0 0 1000 420" role="img" aria-label="Yearly citation mass 2000-2021">
<rect width="100%" height="100%" fill="#ffffff"/>
<text x="32" y="38" fill="#0f172a" font-size="24" font-weight="800">Yearly Citation Mass, 2000-2021</text>
<text x="32" y="60" fill="#64748b" font-size="14">Citation counts among visible selected papers</text>
<line x1="80" y1="340" x2="930" y2="340" stroke="#cbd5e1" stroke-width="2"/>
<rect x="80" y="298" width="25" height="42" rx="5" fill="#7c3aed"/><text x="92.5" y="368" text-anchor="middle" fill="#475569" font-size="14">2000</text><text x="92.5" y="290" text-anchor="middle" fill="#172033" font-size="13" font-weight="700">151,750</text><rect x="119" y="284" width="25" height="56" rx="5" fill="#7c3aed"/><text x="131.5" y="368" text-anchor="middle" fill="#475569" font-size="14">2001</text><text x="131.5" y="276" text-anchor="middle" fill="#172033" font-size="13" font-weight="700">199,666</text><rect x="158" y="295" width="25" height="45" rx="5" fill="#7c3aed"/><text x="170.5" y="368" text-anchor="middle" fill="#475569" font-size="14">2002</text><text x="170.5" y="287" text-anchor="middle" fill="#172033" font-size="13" font-weight="700">163,015</text><rect x="197" y="306" width="25" height="34" rx="5" fill="#7c3aed"/><text x="209.5" y="368" text-anchor="middle" fill="#475569" font-size="14">2003</text><text x="209.5" y="298" text-anchor="middle" fill="#172033" font-size="13" font-weight="700">124,417</text><rect x="236" y="301" width="25" height="39" rx="5" fill="#7c3aed"/><text x="248.5" y="368" text-anchor="middle" fill="#475569" font-size="14">2004</text><text x="248.5" y="293" text-anchor="middle" fill="#172033" font-size="13" font-weight="700">142,172</text><rect x="275" y="305" width="25" height="35" rx="5" fill="#7c3aed"/><text x="287.5" y="368" text-anchor="middle" fill="#475569" font-size="14">2005</text><text x="287.5" y="297" text-anchor="middle" fill="#172033" font-size="13" font-weight="700">124,983</text><rect x="314" y="307" width="25" height="33" rx="5" fill="#7c3aed"/><text x="326.5" y="368" text-anchor="middle" fill="#475569" font-size="14">2006</text><text x="326.5" y="299" text-anchor="middle" fill="#172033" font-size="13" font-weight="700">117,674</text><rect x="353" y="304" width="25" height="36" rx="5" fill="#7c3aed"/><text x="365.5" y="368" text-anchor="middle" fill="#475569" font-size="14">2007</text><text x="365.5" y="296" text-anchor="middle" fill="#172033" font-size="13" font-weight="700">128,381</text><rect x="392" y="308" width="25" height="32" rx="5" fill="#7c3aed"/><text x="404.5" y="368" text-anchor="middle" fill="#475569" font-size="14">2008</text><text x="404.5" y="300" text-anchor="middle" fill="#172033" font-size="13" font-weight="700">116,790</text><rect x="431" y="271" width="25" height="69" rx="5" fill="#7c3aed"/><text x="443.5" y="368" text-anchor="middle" fill="#475569" font-size="14">2009</text><text x="443.5" y="263" text-anchor="middle" fill="#172033" font-size="13" font-weight="700">247,309</text><rect x="470" y="289" width="25" height="51" rx="5" fill="#7c3aed"/><text x="482.5" y="368" text-anchor="middle" fill="#475569" font-size="14">2010</text><text x="482.5" y="281" text-anchor="middle" fill="#172033" font-size="13" font-weight="700">184,831</text><rect x="509" y="269" width="25" height="71" rx="5" fill="#7c3aed"/><text x="521.5" y="368" text-anchor="middle" fill="#475569" font-size="14">2011</text><text x="521.5" y="261" text-anchor="middle" fill="#172033" font-size="13" font-weight="700">254,295</text><rect x="548" y="247" width="25" height="93" rx="5" fill="#7c3aed"/><text x="560.5" y="368" text-anchor="middle" fill="#475569" font-size="14">2012</text><text x="560.5" y="239" text-anchor="middle" fill="#172033" font-size="13" font-weight="700">332,579</text><rect x="587" y="263" width="25" height="77" rx="5" fill="#7c3aed"/><text x="599.5" y="368" text-anchor="middle" fill="#475569" font-size="14">2013</text><text x="599.5" y="255" text-anchor="middle" fill="#172033" font-size="13" font-weight="700">274,215</text><rect x="626" y="132" width="25" height="208" rx="5" fill="#7c3aed"/><text x="638.5" y="368" text-anchor="middle" fill="#475569" font-size="14">2014</text><text x="638.5" y="124" text-anchor="middle" fill="#172033" font-size="13" font-weight="700">742,024</text><rect x="665" y="70" width="25" height="270" rx="5" fill="#7c3aed"/><text x="677.5" y="368" text-anchor="middle" fill="#475569" font-size="14">2015</text><text x="677.5" y="62" text-anchor="middle" fill="#172033" font-size="13" font-weight="700">960,511</text><rect x="704" y="133" width="25" height="207" rx="5" fill="#7c3aed"/><text x="716.5" y="368" text-anchor="middle" fill="#475569" font-size="14">2016</text><text x="716.5" y="125" text-anchor="middle" fill="#172033" font-size="13" font-weight="700">738,490</text><rect x="743" y="123" width="25" height="217" rx="5" fill="#7c3aed"/><text x="755.5" y="368" text-anchor="middle" fill="#475569" font-size="14">2017</text><text x="755.5" y="115" text-anchor="middle" fill="#172033" font-size="13" font-weight="700">775,257</text><rect x="782" y="215" width="25" height="125" rx="5" fill="#7c3aed"/><text x="794.5" y="368" text-anchor="middle" fill="#475569" font-size="14">2018</text><text x="794.5" y="207" text-anchor="middle" fill="#172033" font-size="13" font-weight="700">445,723</text><rect x="821" y="161" width="25" height="179" rx="5" fill="#7c3aed"/><text x="833.5" y="368" text-anchor="middle" fill="#475569" font-size="14">2019</text><text x="833.5" y="153" text-anchor="middle" fill="#172033" font-size="13" font-weight="700">638,014</text><rect x="860" y="218" width="25" height="122" rx="5" fill="#7c3aed"/><text x="872.5" y="368" text-anchor="middle" fill="#475569" font-size="14">2020</text><text x="872.5" y="210" text-anchor="middle" fill="#172033" font-size="13" font-weight="700">436,445</text><rect x="899" y="221" width="25" height="119" rx="5" fill="#7c3aed"/><text x="911.5" y="368" text-anchor="middle" fill="#475569" font-size="14">2021</text><text x="911.5" y="213" text-anchor="middle" fill="#172033" font-size="13" font-weight="700">425,132</text>
</svg>