<svg xmlns="http://www.w3.org/2000/svg" width="1000" height="420" viewBox="0 0 1000 420" role="img" aria-label="Yearly citation mass 2002-2011">
<rect width="100%" height="100%" fill="#ffffff"/>
<text x="32" y="38" fill="#0f172a" font-size="24" font-weight="800">Yearly Citation Mass, 2002-2011</text>
<text x="32" y="60" fill="#64748b" font-size="14">Citation counts among visible selected papers</text>
<line x1="80" y1="340" x2="930" y2="340" stroke="#cbd5e1" stroke-width="2"/>
<rect x="80" y="167" width="72" height="173" rx="5" fill="#7c3aed"/><text x="116.0" y="368" text-anchor="middle" fill="#475569" font-size="14">2002</text><text x="116.0" y="159" text-anchor="middle" fill="#172033" font-size="13" font-weight="700">163,015</text><rect x="166" y="208" width="72" height="132" rx="5" fill="#7c3aed"/><text x="202.0" y="368" text-anchor="middle" fill="#475569" font-size="14">2003</text><text x="202.0" y="200" text-anchor="middle" fill="#172033" font-size="13" font-weight="700">124,417</text><rect x="252" y="190" width="72" height="150" rx="5" fill="#7c3aed"/><text x="288.0" y="368" text-anchor="middle" fill="#475569" font-size="14">2004</text><text x="288.0" y="182" text-anchor="middle" fill="#172033" font-size="13" font-weight="700">142,172</text><rect x="338" y="208" width="72" height="132" rx="5" fill="#7c3aed"/><text x="374.0" y="368" text-anchor="middle" fill="#475569" font-size="14">2005</text><text x="374.0" y="200" text-anchor="middle" fill="#172033" font-size="13" font-weight="700">124,983</text><rect x="424" y="216" width="72" height="124" rx="5" fill="#7c3aed"/><text x="460.0" y="368" text-anchor="middle" fill="#475569" font-size="14">2006</text><text x="460.0" y="208" text-anchor="middle" fill="#172033" font-size="13" font-weight="700">117,674</text><rect x="510" y="204" width="72" height="136" rx="5" fill="#7c3aed"/><text x="546.0" y="368" text-anchor="middle" fill="#475569" font-size="14">2007</text><text x="546.0" y="196" text-anchor="middle" fill="#172033" font-size="13" font-weight="700">128,381</text><rect x="596" y="216" width="72" height="124" rx="5" fill="#7c3aed"/><text x="632.0" y="368" text-anchor="middle" fill="#475569" font-size="14">2008</text><text x="632.0" y="208" text-anchor="middle" fill="#172033" font-size="13" font-weight="700">116,790</text><rect x="682" y="78" width="72" height="262" rx="5" fill="#7c3aed"/><text x="718.0" y="368" text-anchor="middle" fill="#475569" font-size="14">2009</text><text x="718.0" y="70" text-anchor="middle" fill="#172033" font-size="13" font-weight="700">247,309</text><rect x="768" y="144" width="72" height="196" rx="5" fill="#7c3aed"/><text x="804.0" y="368" text-anchor="middle" fill="#475569" font-size="14">2010</text><text x="804.0" y="136" text-anchor="middle" fill="#172033" font-size="13" font-weight="700">184,831</text><rect x="854" y="70" width="72" height="270" rx="5" fill="#7c3aed"/><text x="890.0" y="368" text-anchor="middle" fill="#475569" font-size="14">2011</text><text x="890.0" y="62" text-anchor="middle" fill="#172033" font-size="13" font-weight="700">254,295</text>
</svg>