<svg xmlns="http://www.w3.org/2000/svg" width="1000" height="420" viewBox="0 0 1000 420" role="img" aria-label="Yearly citation mass 2001-2009">
<rect width="100%" height="100%" fill="#ffffff"/>
<text x="32" y="38" fill="#0f172a" font-size="24" font-weight="800">Yearly Citation Mass, 2001-2009</text>
<text x="32" y="60" fill="#64748b" font-size="14">Citation counts among visible selected papers</text>
<line x1="80" y1="340" x2="930" y2="340" stroke="#cbd5e1" stroke-width="2"/>
<rect x="80" y="123" width="82" height="217" rx="5" fill="#7c3aed"/><text x="121.0" y="368" text-anchor="middle" fill="#475569" font-size="14">2001</text><text x="121.0" y="115" text-anchor="middle" fill="#172033" font-size="13" font-weight="700">199,666</text><rect x="176" y="163" width="82" height="177" rx="5" fill="#7c3aed"/><text x="217.0" y="368" text-anchor="middle" fill="#475569" font-size="14">2002</text><text x="217.0" y="155" text-anchor="middle" fill="#172033" font-size="13" font-weight="700">163,015</text><rect x="272" y="205" width="82" height="135" rx="5" fill="#7c3aed"/><text x="313.0" y="368" text-anchor="middle" fill="#475569" font-size="14">2003</text><text x="313.0" y="197" text-anchor="middle" fill="#172033" font-size="13" font-weight="700">124,417</text><rect x="368" y="185" width="82" height="155" rx="5" fill="#7c3aed"/><text x="409.0" y="368" text-anchor="middle" fill="#475569" font-size="14">2004</text><text x="409.0" y="177" text-anchor="middle" fill="#172033" font-size="13" font-weight="700">142,172</text><rect x="464" y="204" width="82" height="136" rx="5" fill="#7c3aed"/><text x="505.0" y="368" text-anchor="middle" fill="#475569" font-size="14">2005</text><text x="505.0" y="196" text-anchor="middle" fill="#172033" font-size="13" font-weight="700">124,983</text><rect x="560" y="212" width="82" height="128" rx="5" fill="#7c3aed"/><text x="601.0" y="368" text-anchor="middle" fill="#475569" font-size="14">2006</text><text x="601.0" y="204" text-anchor="middle" fill="#172033" font-size="13" font-weight="700">117,674</text><rect x="656" y="200" width="82" height="140" rx="5" fill="#7c3aed"/><text x="697.0" y="368" text-anchor="middle" fill="#475569" font-size="14">2007</text><text x="697.0" y="192" text-anchor="middle" fill="#172033" font-size="13" font-weight="700">128,381</text><rect x="752" y="213" width="82" height="127" rx="5" fill="#7c3aed"/><text x="793.0" y="368" text-anchor="middle" fill="#475569" font-size="14">2008</text><text x="793.0" y="205" text-anchor="middle" fill="#172033" font-size="13" font-weight="700">116,790</text><rect x="848" y="70" width="82" height="270" rx="5" fill="#7c3aed"/><text x="889.0" y="368" text-anchor="middle" fill="#475569" font-size="14">2009</text><text x="889.0" y="62" text-anchor="middle" fill="#172033" font-size="13" font-weight="700">247,309</text>
</svg>