<svg xmlns="http://www.w3.org/2000/svg" width="1000" height="420" viewBox="0 0 1000 420" role="img" aria-label="Yearly citation mass 2014-2025">
<rect width="100%" height="100%" fill="#ffffff"/>
<text x="32" y="38" fill="#0f172a" font-size="24" font-weight="800">Yearly Citation Mass, 2014-2025</text>
<text x="32" y="60" fill="#64748b" font-size="14">Citation counts among visible selected papers</text>
<line x1="80" y1="340" x2="930" y2="340" stroke="#cbd5e1" stroke-width="2"/>
<rect x="80" y="132" width="58" height="208" rx="5" fill="#7c3aed"/><text x="109.0" y="368" text-anchor="middle" fill="#475569" font-size="14">2014</text><text x="109.0" y="124" text-anchor="middle" fill="#172033" font-size="13" font-weight="700">742,024</text><rect x="152" y="70" width="58" height="270" rx="5" fill="#7c3aed"/><text x="181.0" y="368" text-anchor="middle" fill="#475569" font-size="14">2015</text><text x="181.0" y="62" text-anchor="middle" fill="#172033" font-size="13" font-weight="700">960,511</text><rect x="224" y="133" width="58" height="207" rx="5" fill="#7c3aed"/><text x="253.0" y="368" text-anchor="middle" fill="#475569" font-size="14">2016</text><text x="253.0" y="125" text-anchor="middle" fill="#172033" font-size="13" font-weight="700">738,490</text><rect x="296" y="123" width="58" height="217" rx="5" fill="#7c3aed"/><text x="325.0" y="368" text-anchor="middle" fill="#475569" font-size="14">2017</text><text x="325.0" y="115" text-anchor="middle" fill="#172033" font-size="13" font-weight="700">775,257</text><rect x="368" y="215" width="58" height="125" rx="5" fill="#7c3aed"/><text x="397.0" y="368" text-anchor="middle" fill="#475569" font-size="14">2018</text><text x="397.0" y="207" text-anchor="middle" fill="#172033" font-size="13" font-weight="700">445,723</text><rect x="440" y="161" width="58" height="179" rx="5" fill="#7c3aed"/><text x="469.0" y="368" text-anchor="middle" fill="#475569" font-size="14">2019</text><text x="469.0" y="153" text-anchor="middle" fill="#172033" font-size="13" font-weight="700">638,014</text><rect x="512" y="218" width="58" height="122" rx="5" fill="#7c3aed"/><text x="541.0" y="368" text-anchor="middle" fill="#475569" font-size="14">2020</text><text x="541.0" y="210" text-anchor="middle" fill="#172033" font-size="13" font-weight="700">436,445</text><rect x="584" y="221" width="58" height="119" rx="5" fill="#7c3aed"/><text x="613.0" y="368" text-anchor="middle" fill="#475569" font-size="14">2021</text><text x="613.0" y="213" text-anchor="middle" fill="#172033" font-size="13" font-weight="700">425,132</text><rect x="656" y="261" width="58" height="79" rx="5" fill="#7c3aed"/><text x="685.0" y="368" text-anchor="middle" fill="#475569" font-size="14">2022</text><text x="685.0" y="253" text-anchor="middle" fill="#172033" font-size="13" font-weight="700">284,273</text><rect x="728" y="247" width="58" height="93" rx="5" fill="#7c3aed"/><text x="757.0" y="368" text-anchor="middle" fill="#475569" font-size="14">2023</text><text x="757.0" y="239" text-anchor="middle" fill="#172033" font-size="13" font-weight="700">334,364</text><rect x="800" y="300" width="58" height="40" rx="5" fill="#7c3aed"/><text x="829.0" y="368" text-anchor="middle" fill="#475569" font-size="14">2024</text><text x="829.0" y="292" text-anchor="middle" fill="#172033" font-size="13" font-weight="700">145,505</text><rect x="872" y="320" width="58" height="20" rx="5" fill="#7c3aed"/><text x="901.0" y="368" text-anchor="middle" fill="#475569" font-size="14">2025</text><text x="901.0" y="312" text-anchor="middle" fill="#172033" font-size="13" font-weight="700">72,745</text>
</svg>