<svg xmlns="http://www.w3.org/2000/svg" width="1000" height="420" viewBox="0 0 1000 420" role="img" aria-label="Yearly citation mass 2005-2016">
<rect width="100%" height="100%" fill="#ffffff"/>
<text x="32" y="38" fill="#0f172a" font-size="24" font-weight="800">Yearly Citation Mass, 2005-2016</text>
<text x="32" y="60" fill="#64748b" font-size="14">Citation counts among visible selected papers</text>
<line x1="80" y1="340" x2="930" y2="340" stroke="#cbd5e1" stroke-width="2"/>
<rect x="80" y="305" width="58" height="35" rx="5" fill="#7c3aed"/><text x="109.0" y="368" text-anchor="middle" fill="#475569" font-size="14">2005</text><text x="109.0" y="297" text-anchor="middle" fill="#172033" font-size="13" font-weight="700">124,983</text><rect x="152" y="307" width="58" height="33" rx="5" fill="#7c3aed"/><text x="181.0" y="368" text-anchor="middle" fill="#475569" font-size="14">2006</text><text x="181.0" y="299" text-anchor="middle" fill="#172033" font-size="13" font-weight="700">117,674</text><rect x="224" y="304" width="58" height="36" rx="5" fill="#7c3aed"/><text x="253.0" y="368" text-anchor="middle" fill="#475569" font-size="14">2007</text><text x="253.0" y="296" text-anchor="middle" fill="#172033" font-size="13" font-weight="700">128,381</text><rect x="296" y="308" width="58" height="32" rx="5" fill="#7c3aed"/><text x="325.0" y="368" text-anchor="middle" fill="#475569" font-size="14">2008</text><text x="325.0" y="300" text-anchor="middle" fill="#172033" font-size="13" font-weight="700">116,790</text><rect x="368" y="271" width="58" height="69" rx="5" fill="#7c3aed"/><text x="397.0" y="368" text-anchor="middle" fill="#475569" font-size="14">2009</text><text x="397.0" y="263" text-anchor="middle" fill="#172033" font-size="13" font-weight="700">247,309</text><rect x="440" y="289" width="58" height="51" rx="5" fill="#7c3aed"/><text x="469.0" y="368" text-anchor="middle" fill="#475569" font-size="14">2010</text><text x="469.0" y="281" text-anchor="middle" fill="#172033" font-size="13" font-weight="700">184,831</text><rect x="512" y="269" width="58" height="71" rx="5" fill="#7c3aed"/><text x="541.0" y="368" text-anchor="middle" fill="#475569" font-size="14">2011</text><text x="541.0" y="261" text-anchor="middle" fill="#172033" font-size="13" font-weight="700">254,295</text><rect x="584" y="247" width="58" height="93" rx="5" fill="#7c3aed"/><text x="613.0" y="368" text-anchor="middle" fill="#475569" font-size="14">2012</text><text x="613.0" y="239" text-anchor="middle" fill="#172033" font-size="13" font-weight="700">332,579</text><rect x="656" y="263" width="58" height="77" rx="5" fill="#7c3aed"/><text x="685.0" y="368" text-anchor="middle" fill="#475569" font-size="14">2013</text><text x="685.0" y="255" text-anchor="middle" fill="#172033" font-size="13" font-weight="700">274,215</text><rect x="728" y="132" width="58" height="208" rx="5" fill="#7c3aed"/><text x="757.0" y="368" text-anchor="middle" fill="#475569" font-size="14">2014</text><text x="757.0" y="124" text-anchor="middle" fill="#172033" font-size="13" font-weight="700">742,024</text><rect x="800" y="70" width="58" height="270" rx="5" fill="#7c3aed"/><text x="829.0" y="368" text-anchor="middle" fill="#475569" font-size="14">2015</text><text x="829.0" y="62" text-anchor="middle" fill="#172033" font-size="13" font-weight="700">960,511</text><rect x="872" y="133" width="58" height="207" rx="5" fill="#7c3aed"/><text x="901.0" y="368" text-anchor="middle" fill="#475569" font-size="14">2016</text><text x="901.0" y="125" text-anchor="middle" fill="#172033" font-size="13" font-weight="700">738,490</text>
</svg>