<svg xmlns="http://www.w3.org/2000/svg" width="1000" height="420" viewBox="0 0 1000 420" role="img" aria-label="Yearly citation mass 2001-2016">
<rect width="100%" height="100%" fill="#ffffff"/>
<text x="32" y="38" fill="#0f172a" font-size="24" font-weight="800">Yearly Citation Mass, 2001-2016</text>
<text x="32" y="60" fill="#64748b" font-size="14">Citation counts among visible selected papers</text>
<line x1="80" y1="340" x2="930" y2="340" stroke="#cbd5e1" stroke-width="2"/>
<rect x="80" y="284" width="40" height="56" rx="5" fill="#7c3aed"/><text x="100.0" y="368" text-anchor="middle" fill="#475569" font-size="14">2001</text><text x="100.0" y="276" text-anchor="middle" fill="#172033" font-size="13" font-weight="700">199,666</text><rect x="134" y="295" width="40" height="45" rx="5" fill="#7c3aed"/><text x="154.0" y="368" text-anchor="middle" fill="#475569" font-size="14">2002</text><text x="154.0" y="287" text-anchor="middle" fill="#172033" font-size="13" font-weight="700">163,015</text><rect x="188" y="306" width="40" height="34" rx="5" fill="#7c3aed"/><text x="208.0" y="368" text-anchor="middle" fill="#475569" font-size="14">2003</text><text x="208.0" y="298" text-anchor="middle" fill="#172033" font-size="13" font-weight="700">124,417</text><rect x="242" y="301" width="40" height="39" rx="5" fill="#7c3aed"/><text x="262.0" y="368" text-anchor="middle" fill="#475569" font-size="14">2004</text><text x="262.0" y="293" text-anchor="middle" fill="#172033" font-size="13" font-weight="700">142,172</text><rect x="296" y="305" width="40" height="35" rx="5" fill="#7c3aed"/><text x="316.0" y="368" text-anchor="middle" fill="#475569" font-size="14">2005</text><text x="316.0" y="297" text-anchor="middle" fill="#172033" font-size="13" font-weight="700">124,983</text><rect x="350" y="307" width="40" height="33" rx="5" fill="#7c3aed"/><text x="370.0" y="368" text-anchor="middle" fill="#475569" font-size="14">2006</text><text x="370.0" y="299" text-anchor="middle" fill="#172033" font-size="13" font-weight="700">117,674</text><rect x="404" y="304" width="40" height="36" rx="5" fill="#7c3aed"/><text x="424.0" y="368" text-anchor="middle" fill="#475569" font-size="14">2007</text><text x="424.0" y="296" text-anchor="middle" fill="#172033" font-size="13" font-weight="700">128,381</text><rect x="458" y="308" width="40" height="32" rx="5" fill="#7c3aed"/><text x="478.0" y="368" text-anchor="middle" fill="#475569" font-size="14">2008</text><text x="478.0" y="300" text-anchor="middle" fill="#172033" font-size="13" font-weight="700">116,790</text><rect x="512" y="271" width="40" height="69" rx="5" fill="#7c3aed"/><text x="532.0" y="368" text-anchor="middle" fill="#475569" font-size="14">2009</text><text x="532.0" y="263" text-anchor="middle" fill="#172033" font-size="13" font-weight="700">247,309</text><rect x="566" y="289" width="40" height="51" rx="5" fill="#7c3aed"/><text x="586.0" y="368" text-anchor="middle" fill="#475569" font-size="14">2010</text><text x="586.0" y="281" text-anchor="middle" fill="#172033" font-size="13" font-weight="700">184,831</text><rect x="620" y="269" width="40" height="71" rx="5" fill="#7c3aed"/><text x="640.0" y="368" text-anchor="middle" fill="#475569" font-size="14">2011</text><text x="640.0" y="261" text-anchor="middle" fill="#172033" font-size="13" font-weight="700">254,295</text><rect x="674" y="247" width="40" height="93" rx="5" fill="#7c3aed"/><text x="694.0" y="368" text-anchor="middle" fill="#475569" font-size="14">2012</text><text x="694.0" y="239" text-anchor="middle" fill="#172033" font-size="13" font-weight="700">332,579</text><rect x="728" y="263" width="40" height="77" rx="5" fill="#7c3aed"/><text x="748.0" y="368" text-anchor="middle" fill="#475569" font-size="14">2013</text><text x="748.0" y="255" text-anchor="middle" fill="#172033" font-size="13" font-weight="700">274,215</text><rect x="782" y="132" width="40" height="208" rx="5" fill="#7c3aed"/><text x="802.0" y="368" text-anchor="middle" fill="#475569" font-size="14">2014</text><text x="802.0" y="124" text-anchor="middle" fill="#172033" font-size="13" font-weight="700">742,024</text><rect x="836" y="70" width="40" height="270" rx="5" fill="#7c3aed"/><text x="856.0" y="368" text-anchor="middle" fill="#475569" font-size="14">2015</text><text x="856.0" y="62" text-anchor="middle" fill="#172033" font-size="13" font-weight="700">960,511</text><rect x="890" y="133" width="40" height="207" rx="5" fill="#7c3aed"/><text x="910.0" y="368" text-anchor="middle" fill="#475569" font-size="14">2016</text><text x="910.0" y="125" text-anchor="middle" fill="#172033" font-size="13" font-weight="700">738,490</text>
</svg>