<svg xmlns="http://www.w3.org/2000/svg" width="1000" height="420" viewBox="0 0 1000 420" role="img" aria-label="Yearly citation mass 2004-2009">
<rect width="100%" height="100%" fill="#ffffff"/>
<text x="32" y="38" fill="#0f172a" font-size="24" font-weight="800">Yearly Citation Mass, 2004-2009</text>
<text x="32" y="60" fill="#64748b" font-size="14">Citation counts among visible selected papers</text>
<line x1="80" y1="340" x2="930" y2="340" stroke="#cbd5e1" stroke-width="2"/>
<rect x="80" y="185" width="130" height="155" rx="5" fill="#7c3aed"/><text x="145.0" y="368" text-anchor="middle" fill="#475569" font-size="14">2004</text><text x="145.0" y="177" text-anchor="middle" fill="#172033" font-size="13" font-weight="700">142,172</text><rect x="224" y="204" width="130" height="136" rx="5" fill="#7c3aed"/><text x="289.0" y="368" text-anchor="middle" fill="#475569" font-size="14">2005</text><text x="289.0" y="196" text-anchor="middle" fill="#172033" font-size="13" font-weight="700">124,983</text><rect x="368" y="212" width="130" height="128" rx="5" fill="#7c3aed"/><text x="433.0" y="368" text-anchor="middle" fill="#475569" font-size="14">2006</text><text x="433.0" y="204" text-anchor="middle" fill="#172033" font-size="13" font-weight="700">117,674</text><rect x="512" y="200" width="130" height="140" rx="5" fill="#7c3aed"/><text x="577.0" y="368" text-anchor="middle" fill="#475569" font-size="14">2007</text><text x="577.0" y="192" text-anchor="middle" fill="#172033" font-size="13" font-weight="700">128,381</text><rect x="656" y="213" width="130" height="127" rx="5" fill="#7c3aed"/><text x="721.0" y="368" text-anchor="middle" fill="#475569" font-size="14">2008</text><text x="721.0" y="205" text-anchor="middle" fill="#172033" font-size="13" font-weight="700">116,790</text><rect x="800" y="70" width="130" height="270" rx="5" fill="#7c3aed"/><text x="865.0" y="368" text-anchor="middle" fill="#475569" font-size="14">2009</text><text x="865.0" y="62" text-anchor="middle" fill="#172033" font-size="13" font-weight="700">247,309</text>
</svg>