<svg xmlns="http://www.w3.org/2000/svg" width="1000" height="420" viewBox="0 0 1000 420" role="img" aria-label="Yearly citation mass 2011-2020">
<rect width="100%" height="100%" fill="#ffffff"/>
<text x="32" y="38" fill="#0f172a" font-size="24" font-weight="800">Yearly Citation Mass, 2011-2020</text>
<text x="32" y="60" fill="#64748b" font-size="14">Citation counts among visible selected papers</text>
<line x1="80" y1="340" x2="930" y2="340" stroke="#cbd5e1" stroke-width="2"/>
<rect x="80" y="269" width="72" height="71" rx="5" fill="#7c3aed"/><text x="116.0" y="368" text-anchor="middle" fill="#475569" font-size="14">2011</text><text x="116.0" y="261" text-anchor="middle" fill="#172033" font-size="13" font-weight="700">254,295</text><rect x="166" y="247" width="72" height="93" rx="5" fill="#7c3aed"/><text x="202.0" y="368" text-anchor="middle" fill="#475569" font-size="14">2012</text><text x="202.0" y="239" text-anchor="middle" fill="#172033" font-size="13" font-weight="700">332,579</text><rect x="252" y="263" width="72" height="77" rx="5" fill="#7c3aed"/><text x="288.0" y="368" text-anchor="middle" fill="#475569" font-size="14">2013</text><text x="288.0" y="255" text-anchor="middle" fill="#172033" font-size="13" font-weight="700">274,215</text><rect x="338" y="132" width="72" height="208" rx="5" fill="#7c3aed"/><text x="374.0" y="368" text-anchor="middle" fill="#475569" font-size="14">2014</text><text x="374.0" y="124" text-anchor="middle" fill="#172033" font-size="13" font-weight="700">742,024</text><rect x="424" y="70" width="72" height="270" rx="5" fill="#7c3aed"/><text x="460.0" y="368" text-anchor="middle" fill="#475569" font-size="14">2015</text><text x="460.0" y="62" text-anchor="middle" fill="#172033" font-size="13" font-weight="700">960,511</text><rect x="510" y="133" width="72" height="207" rx="5" fill="#7c3aed"/><text x="546.0" y="368" text-anchor="middle" fill="#475569" font-size="14">2016</text><text x="546.0" y="125" text-anchor="middle" fill="#172033" font-size="13" font-weight="700">738,490</text><rect x="596" y="123" width="72" height="217" rx="5" fill="#7c3aed"/><text x="632.0" y="368" text-anchor="middle" fill="#475569" font-size="14">2017</text><text x="632.0" y="115" text-anchor="middle" fill="#172033" font-size="13" font-weight="700">775,257</text><rect x="682" y="215" width="72" height="125" rx="5" fill="#7c3aed"/><text x="718.0" y="368" text-anchor="middle" fill="#475569" font-size="14">2018</text><text x="718.0" y="207" text-anchor="middle" fill="#172033" font-size="13" font-weight="700">445,723</text><rect x="768" y="161" width="72" height="179" rx="5" fill="#7c3aed"/><text x="804.0" y="368" text-anchor="middle" fill="#475569" font-size="14">2019</text><text x="804.0" y="153" text-anchor="middle" fill="#172033" font-size="13" font-weight="700">638,014</text><rect x="854" y="218" width="72" height="122" rx="5" fill="#7c3aed"/><text x="890.0" y="368" text-anchor="middle" fill="#475569" font-size="14">2020</text><text x="890.0" y="210" text-anchor="middle" fill="#172033" font-size="13" font-weight="700">436,445</text>
</svg>