<svg xmlns="http://www.w3.org/2000/svg" width="1000" height="420" viewBox="0 0 1000 420" role="img" aria-label="Yearly citation mass 2002-2014">
<rect width="100%" height="100%" fill="#ffffff"/>
<text x="32" y="38" fill="#0f172a" font-size="24" font-weight="800">Yearly Citation Mass, 2002-2014</text>
<text x="32" y="60" fill="#64748b" font-size="14">Citation counts among visible selected papers</text>
<line x1="80" y1="340" x2="930" y2="340" stroke="#cbd5e1" stroke-width="2"/>
<rect x="80" y="281" width="52" height="59" rx="5" fill="#7c3aed"/><text x="106.0" y="368" text-anchor="middle" fill="#475569" font-size="14">2002</text><text x="106.0" y="273" text-anchor="middle" fill="#172033" font-size="13" font-weight="700">163,015</text><rect x="146" y="295" width="52" height="45" rx="5" fill="#7c3aed"/><text x="172.0" y="368" text-anchor="middle" fill="#475569" font-size="14">2003</text><text x="172.0" y="287" text-anchor="middle" fill="#172033" font-size="13" font-weight="700">124,417</text><rect x="212" y="289" width="52" height="51" rx="5" fill="#7c3aed"/><text x="238.0" y="368" text-anchor="middle" fill="#475569" font-size="14">2004</text><text x="238.0" y="281" text-anchor="middle" fill="#172033" font-size="13" font-weight="700">142,172</text><rect x="278" y="295" width="52" height="45" rx="5" fill="#7c3aed"/><text x="304.0" y="368" text-anchor="middle" fill="#475569" font-size="14">2005</text><text x="304.0" y="287" text-anchor="middle" fill="#172033" font-size="13" font-weight="700">124,983</text><rect x="344" y="298" width="52" height="42" rx="5" fill="#7c3aed"/><text x="370.0" y="368" text-anchor="middle" fill="#475569" font-size="14">2006</text><text x="370.0" y="290" text-anchor="middle" fill="#172033" font-size="13" font-weight="700">117,674</text><rect x="410" y="294" width="52" height="46" rx="5" fill="#7c3aed"/><text x="436.0" y="368" text-anchor="middle" fill="#475569" font-size="14">2007</text><text x="436.0" y="286" text-anchor="middle" fill="#172033" font-size="13" font-weight="700">128,381</text><rect x="476" y="298" width="52" height="42" rx="5" fill="#7c3aed"/><text x="502.0" y="368" text-anchor="middle" fill="#475569" font-size="14">2008</text><text x="502.0" y="290" text-anchor="middle" fill="#172033" font-size="13" font-weight="700">116,790</text><rect x="542" y="251" width="52" height="89" rx="5" fill="#7c3aed"/><text x="568.0" y="368" text-anchor="middle" fill="#475569" font-size="14">2009</text><text x="568.0" y="243" text-anchor="middle" fill="#172033" font-size="13" font-weight="700">247,309</text><rect x="608" y="273" width="52" height="67" rx="5" fill="#7c3aed"/><text x="634.0" y="368" text-anchor="middle" fill="#475569" font-size="14">2010</text><text x="634.0" y="265" text-anchor="middle" fill="#172033" font-size="13" font-weight="700">184,831</text><rect x="674" y="248" width="52" height="92" rx="5" fill="#7c3aed"/><text x="700.0" y="368" text-anchor="middle" fill="#475569" font-size="14">2011</text><text x="700.0" y="240" text-anchor="middle" fill="#172033" font-size="13" font-weight="700">254,295</text><rect x="740" y="219" width="52" height="121" rx="5" fill="#7c3aed"/><text x="766.0" y="368" text-anchor="middle" fill="#475569" font-size="14">2012</text><text x="766.0" y="211" text-anchor="middle" fill="#172033" font-size="13" font-weight="700">332,579</text><rect x="806" y="241" width="52" height="99" rx="5" fill="#7c3aed"/><text x="832.0" y="368" text-anchor="middle" fill="#475569" font-size="14">2013</text><text x="832.0" y="233" text-anchor="middle" fill="#172033" font-size="13" font-weight="700">274,215</text><rect x="872" y="70" width="52" height="270" rx="5" fill="#7c3aed"/><text x="898.0" y="368" text-anchor="middle" fill="#475569" font-size="14">2014</text><text x="898.0" y="62" text-anchor="middle" fill="#172033" font-size="13" font-weight="700">742,024</text>
</svg>