<svg xmlns="http://www.w3.org/2000/svg" width="1000" height="420" viewBox="0 0 1000 420" role="img" aria-label="Yearly citation mass 2010-2026">
<rect width="100%" height="100%" fill="#ffffff"/>
<text x="32" y="38" fill="#0f172a" font-size="24" font-weight="800">Yearly Citation Mass, 2010-2026</text>
<text x="32" y="60" fill="#64748b" font-size="14">Citation counts among visible selected papers</text>
<line x1="80" y1="340" x2="930" y2="340" stroke="#cbd5e1" stroke-width="2"/>
<rect x="80" y="289" width="36" height="51" rx="5" fill="#7c3aed"/><text x="98.0" y="368" text-anchor="middle" fill="#475569" font-size="14">2010</text><text x="98.0" y="281" text-anchor="middle" fill="#172033" font-size="13" font-weight="700">184,831</text><rect x="130" y="269" width="36" height="71" rx="5" fill="#7c3aed"/><text x="148.0" y="368" text-anchor="middle" fill="#475569" font-size="14">2011</text><text x="148.0" y="261" text-anchor="middle" fill="#172033" font-size="13" font-weight="700">254,295</text><rect x="180" y="247" width="36" height="93" rx="5" fill="#7c3aed"/><text x="198.0" y="368" text-anchor="middle" fill="#475569" font-size="14">2012</text><text x="198.0" y="239" text-anchor="middle" fill="#172033" font-size="13" font-weight="700">332,579</text><rect x="230" y="263" width="36" height="77" rx="5" fill="#7c3aed"/><text x="248.0" y="368" text-anchor="middle" fill="#475569" font-size="14">2013</text><text x="248.0" y="255" text-anchor="middle" fill="#172033" font-size="13" font-weight="700">274,215</text><rect x="280" y="132" width="36" height="208" rx="5" fill="#7c3aed"/><text x="298.0" y="368" text-anchor="middle" fill="#475569" font-size="14">2014</text><text x="298.0" y="124" text-anchor="middle" fill="#172033" font-size="13" font-weight="700">742,024</text><rect x="330" y="70" width="36" height="270" rx="5" fill="#7c3aed"/><text x="348.0" y="368" text-anchor="middle" fill="#475569" font-size="14">2015</text><text x="348.0" y="62" text-anchor="middle" fill="#172033" font-size="13" font-weight="700">960,511</text><rect x="380" y="133" width="36" height="207" rx="5" fill="#7c3aed"/><text x="398.0" y="368" text-anchor="middle" fill="#475569" font-size="14">2016</text><text x="398.0" y="125" text-anchor="middle" fill="#172033" font-size="13" font-weight="700">738,490</text><rect x="430" y="123" width="36" height="217" rx="5" fill="#7c3aed"/><text x="448.0" y="368" text-anchor="middle" fill="#475569" font-size="14">2017</text><text x="448.0" y="115" text-anchor="middle" fill="#172033" font-size="13" font-weight="700">775,257</text><rect x="480" y="215" width="36" height="125" rx="5" fill="#7c3aed"/><text x="498.0" y="368" text-anchor="middle" fill="#475569" font-size="14">2018</text><text x="498.0" y="207" text-anchor="middle" fill="#172033" font-size="13" font-weight="700">445,723</text><rect x="530" y="161" width="36" height="179" rx="5" fill="#7c3aed"/><text x="548.0" y="368" text-anchor="middle" fill="#475569" font-size="14">2019</text><text x="548.0" y="153" text-anchor="middle" fill="#172033" font-size="13" font-weight="700">638,014</text><rect x="580" y="218" width="36" height="122" rx="5" fill="#7c3aed"/><text x="598.0" y="368" text-anchor="middle" fill="#475569" font-size="14">2020</text><text x="598.0" y="210" text-anchor="middle" fill="#172033" font-size="13" font-weight="700">436,445</text><rect x="630" y="221" width="36" height="119" rx="5" fill="#7c3aed"/><text x="648.0" y="368" text-anchor="middle" fill="#475569" font-size="14">2021</text><text x="648.0" y="213" text-anchor="middle" fill="#172033" font-size="13" font-weight="700">425,132</text><rect x="680" y="261" width="36" height="79" rx="5" fill="#7c3aed"/><text x="698.0" y="368" text-anchor="middle" fill="#475569" font-size="14">2022</text><text x="698.0" y="253" text-anchor="middle" fill="#172033" font-size="13" font-weight="700">284,273</text><rect x="730" y="247" width="36" height="93" rx="5" fill="#7c3aed"/><text x="748.0" y="368" text-anchor="middle" fill="#475569" font-size="14">2023</text><text x="748.0" y="239" text-anchor="middle" fill="#172033" font-size="13" font-weight="700">334,364</text><rect x="780" y="300" width="36" height="40" rx="5" fill="#7c3aed"/><text x="798.0" y="368" text-anchor="middle" fill="#475569" font-size="14">2024</text><text x="798.0" y="292" text-anchor="middle" fill="#172033" font-size="13" font-weight="700">145,505</text><rect x="830" y="320" width="36" height="20" rx="5" fill="#7c3aed"/><text x="848.0" y="368" text-anchor="middle" fill="#475569" font-size="14">2025</text><text x="848.0" y="312" text-anchor="middle" fill="#172033" font-size="13" font-weight="700">72,745</text><rect x="880" y="339" width="36" height="1" rx="5" fill="#7c3aed"/><text x="898.0" y="368" text-anchor="middle" fill="#475569" font-size="14">2026</text><text x="898.0" y="331" text-anchor="middle" fill="#172033" font-size="13" font-weight="700">6,582</text>
</svg>