<svg xmlns="http://www.w3.org/2000/svg" width="1000" height="420" viewBox="0 0 1000 420" role="img" aria-label="Yearly citation mass 2019-2025">
<rect width="100%" height="100%" fill="#ffffff"/>
<text x="32" y="38" fill="#0f172a" font-size="24" font-weight="800">Yearly Citation Mass, 2019-2025</text>
<text x="32" y="60" fill="#64748b" font-size="14">Citation counts among visible selected papers</text>
<line x1="80" y1="340" x2="930" y2="340" stroke="#cbd5e1" stroke-width="2"/>
<rect x="80" y="70" width="109" height="270" rx="5" fill="#7c3aed"/><text x="134.5" y="368" text-anchor="middle" fill="#475569" font-size="14">2019</text><text x="134.5" y="62" text-anchor="middle" fill="#172033" font-size="13" font-weight="700">638,014</text><rect x="203" y="156" width="109" height="184" rx="5" fill="#7c3aed"/><text x="257.5" y="368" text-anchor="middle" fill="#475569" font-size="14">2020</text><text x="257.5" y="148" text-anchor="middle" fill="#172033" font-size="13" font-weight="700">436,445</text><rect x="326" y="161" width="109" height="179" rx="5" fill="#7c3aed"/><text x="380.5" y="368" text-anchor="middle" fill="#475569" font-size="14">2021</text><text x="380.5" y="153" text-anchor="middle" fill="#172033" font-size="13" font-weight="700">425,132</text><rect x="449" y="220" width="109" height="120" rx="5" fill="#7c3aed"/><text x="503.5" y="368" text-anchor="middle" fill="#475569" font-size="14">2022</text><text x="503.5" y="212" text-anchor="middle" fill="#172033" font-size="13" font-weight="700">284,273</text><rect x="572" y="199" width="109" height="141" rx="5" fill="#7c3aed"/><text x="626.5" y="368" text-anchor="middle" fill="#475569" font-size="14">2023</text><text x="626.5" y="191" text-anchor="middle" fill="#172033" font-size="13" font-weight="700">334,364</text><rect x="695" y="279" width="109" height="61" rx="5" fill="#7c3aed"/><text x="749.5" y="368" text-anchor="middle" fill="#475569" font-size="14">2024</text><text x="749.5" y="271" text-anchor="middle" fill="#172033" font-size="13" font-weight="700">145,505</text><rect x="818" y="310" width="109" height="30" rx="5" fill="#7c3aed"/><text x="872.5" y="368" text-anchor="middle" fill="#475569" font-size="14">2025</text><text x="872.5" y="302" text-anchor="middle" fill="#172033" font-size="13" font-weight="700">72,745</text>
</svg>