<svg xmlns="http://www.w3.org/2000/svg" width="1000" height="420" viewBox="0 0 1000 420" role="img" aria-label="Yearly citation mass 2009-2021">
<rect width="100%" height="100%" fill="#ffffff"/>
<text x="32" y="38" fill="#0f172a" font-size="24" font-weight="800">Yearly Citation Mass, 2009-2021</text>
<text x="32" y="60" fill="#64748b" font-size="14">Citation counts among visible selected papers</text>
<line x1="80" y1="340" x2="930" y2="340" stroke="#cbd5e1" stroke-width="2"/>
<rect x="80" y="271" width="52" height="69" rx="5" fill="#7c3aed"/><text x="106.0" y="368" text-anchor="middle" fill="#475569" font-size="14">2009</text><text x="106.0" y="263" text-anchor="middle" fill="#172033" font-size="13" font-weight="700">247,309</text><rect x="146" y="289" width="52" height="51" rx="5" fill="#7c3aed"/><text x="172.0" y="368" text-anchor="middle" fill="#475569" font-size="14">2010</text><text x="172.0" y="281" text-anchor="middle" fill="#172033" font-size="13" font-weight="700">184,831</text><rect x="212" y="269" width="52" height="71" rx="5" fill="#7c3aed"/><text x="238.0" y="368" text-anchor="middle" fill="#475569" font-size="14">2011</text><text x="238.0" y="261" text-anchor="middle" fill="#172033" font-size="13" font-weight="700">254,295</text><rect x="278" y="247" width="52" height="93" rx="5" fill="#7c3aed"/><text x="304.0" y="368" text-anchor="middle" fill="#475569" font-size="14">2012</text><text x="304.0" y="239" text-anchor="middle" fill="#172033" font-size="13" font-weight="700">332,579</text><rect x="344" y="263" width="52" height="77" rx="5" fill="#7c3aed"/><text x="370.0" y="368" text-anchor="middle" fill="#475569" font-size="14">2013</text><text x="370.0" y="255" text-anchor="middle" fill="#172033" font-size="13" font-weight="700">274,215</text><rect x="410" y="132" width="52" height="208" rx="5" fill="#7c3aed"/><text x="436.0" y="368" text-anchor="middle" fill="#475569" font-size="14">2014</text><text x="436.0" y="124" text-anchor="middle" fill="#172033" font-size="13" font-weight="700">742,024</text><rect x="476" y="70" width="52" height="270" rx="5" fill="#7c3aed"/><text x="502.0" y="368" text-anchor="middle" fill="#475569" font-size="14">2015</text><text x="502.0" y="62" text-anchor="middle" fill="#172033" font-size="13" font-weight="700">960,511</text><rect x="542" y="133" width="52" height="207" rx="5" fill="#7c3aed"/><text x="568.0" y="368" text-anchor="middle" fill="#475569" font-size="14">2016</text><text x="568.0" y="125" text-anchor="middle" fill="#172033" font-size="13" font-weight="700">738,490</text><rect x="608" y="123" width="52" height="217" rx="5" fill="#7c3aed"/><text x="634.0" y="368" text-anchor="middle" fill="#475569" font-size="14">2017</text><text x="634.0" y="115" text-anchor="middle" fill="#172033" font-size="13" font-weight="700">775,257</text><rect x="674" y="215" width="52" height="125" rx="5" fill="#7c3aed"/><text x="700.0" y="368" text-anchor="middle" fill="#475569" font-size="14">2018</text><text x="700.0" y="207" text-anchor="middle" fill="#172033" font-size="13" font-weight="700">445,723</text><rect x="740" y="161" width="52" height="179" rx="5" fill="#7c3aed"/><text x="766.0" y="368" text-anchor="middle" fill="#475569" font-size="14">2019</text><text x="766.0" y="153" text-anchor="middle" fill="#172033" font-size="13" font-weight="700">638,014</text><rect x="806" y="218" width="52" height="122" rx="5" fill="#7c3aed"/><text x="832.0" y="368" text-anchor="middle" fill="#475569" font-size="14">2020</text><text x="832.0" y="210" text-anchor="middle" fill="#172033" font-size="13" font-weight="700">436,445</text><rect x="872" y="221" width="52" height="119" rx="5" fill="#7c3aed"/><text x="898.0" y="368" text-anchor="middle" fill="#475569" font-size="14">2021</text><text x="898.0" y="213" text-anchor="middle" fill="#172033" font-size="13" font-weight="700">425,132</text>
</svg>