<svg xmlns="http://www.w3.org/2000/svg" width="1000" height="420" viewBox="0 0 1000 420" role="img" aria-label="Yearly citation mass 2000-2012">
<rect width="100%" height="100%" fill="#ffffff"/>
<text x="32" y="38" fill="#0f172a" font-size="24" font-weight="800">Yearly Citation Mass, 2000-2012</text>
<text x="32" y="60" fill="#64748b" font-size="14">Citation counts among visible selected papers</text>
<line x1="80" y1="340" x2="930" y2="340" stroke="#cbd5e1" stroke-width="2"/>
<rect x="80" y="217" width="52" height="123" rx="5" fill="#7c3aed"/><text x="106.0" y="368" text-anchor="middle" fill="#475569" font-size="14">2000</text><text x="106.0" y="209" text-anchor="middle" fill="#172033" font-size="13" font-weight="700">151,750</text><rect x="146" y="178" width="52" height="162" rx="5" fill="#7c3aed"/><text x="172.0" y="368" text-anchor="middle" fill="#475569" font-size="14">2001</text><text x="172.0" y="170" text-anchor="middle" fill="#172033" font-size="13" font-weight="700">199,666</text><rect x="212" y="208" width="52" height="132" rx="5" fill="#7c3aed"/><text x="238.0" y="368" text-anchor="middle" fill="#475569" font-size="14">2002</text><text x="238.0" y="200" text-anchor="middle" fill="#172033" font-size="13" font-weight="700">163,015</text><rect x="278" y="239" width="52" height="101" rx="5" fill="#7c3aed"/><text x="304.0" y="368" text-anchor="middle" fill="#475569" font-size="14">2003</text><text x="304.0" y="231" text-anchor="middle" fill="#172033" font-size="13" font-weight="700">124,417</text><rect x="344" y="225" width="52" height="115" rx="5" fill="#7c3aed"/><text x="370.0" y="368" text-anchor="middle" fill="#475569" font-size="14">2004</text><text x="370.0" y="217" text-anchor="middle" fill="#172033" font-size="13" font-weight="700">142,172</text><rect x="410" y="239" width="52" height="101" rx="5" fill="#7c3aed"/><text x="436.0" y="368" text-anchor="middle" fill="#475569" font-size="14">2005</text><text x="436.0" y="231" text-anchor="middle" fill="#172033" font-size="13" font-weight="700">124,983</text><rect x="476" y="245" width="52" height="95" rx="5" fill="#7c3aed"/><text x="502.0" y="368" text-anchor="middle" fill="#475569" font-size="14">2006</text><text x="502.0" y="237" text-anchor="middle" fill="#172033" font-size="13" font-weight="700">117,674</text><rect x="542" y="236" width="52" height="104" rx="5" fill="#7c3aed"/><text x="568.0" y="368" text-anchor="middle" fill="#475569" font-size="14">2007</text><text x="568.0" y="228" text-anchor="middle" fill="#172033" font-size="13" font-weight="700">128,381</text><rect x="608" y="246" width="52" height="94" rx="5" fill="#7c3aed"/><text x="634.0" y="368" text-anchor="middle" fill="#475569" font-size="14">2008</text><text x="634.0" y="238" text-anchor="middle" fill="#172033" font-size="13" font-weight="700">116,790</text><rect x="674" y="140" width="52" height="200" rx="5" fill="#7c3aed"/><text x="700.0" y="368" text-anchor="middle" fill="#475569" font-size="14">2009</text><text x="700.0" y="132" text-anchor="middle" fill="#172033" font-size="13" font-weight="700">247,309</text><rect x="740" y="190" width="52" height="150" rx="5" fill="#7c3aed"/><text x="766.0" y="368" text-anchor="middle" fill="#475569" font-size="14">2010</text><text x="766.0" y="182" text-anchor="middle" fill="#172033" font-size="13" font-weight="700">184,831</text><rect x="806" y="134" width="52" height="206" rx="5" fill="#7c3aed"/><text x="832.0" y="368" text-anchor="middle" fill="#475569" font-size="14">2011</text><text x="832.0" y="126" text-anchor="middle" fill="#172033" font-size="13" font-weight="700">254,295</text><rect x="872" y="70" width="52" height="270" rx="5" fill="#7c3aed"/><text x="898.0" y="368" text-anchor="middle" fill="#475569" font-size="14">2012</text><text x="898.0" y="62" text-anchor="middle" fill="#172033" font-size="13" font-weight="700">332,579</text>
</svg>