<svg xmlns="http://www.w3.org/2000/svg" width="1000" height="420" viewBox="0 0 1000 420" role="img" aria-label="Yearly citation mass 2008-2014">
<rect width="100%" height="100%" fill="#ffffff"/>
<text x="32" y="38" fill="#0f172a" font-size="24" font-weight="800">Yearly Citation Mass, 2008-2014</text>
<text x="32" y="60" fill="#64748b" font-size="14">Citation counts among visible selected papers</text>
<line x1="80" y1="340" x2="930" y2="340" stroke="#cbd5e1" stroke-width="2"/>
<rect x="80" y="298" width="109" height="42" rx="5" fill="#7c3aed"/><text x="134.5" y="368" text-anchor="middle" fill="#475569" font-size="14">2008</text><text x="134.5" y="290" text-anchor="middle" fill="#172033" font-size="13" font-weight="700">116,790</text><rect x="203" y="251" width="109" height="89" rx="5" fill="#7c3aed"/><text x="257.5" y="368" text-anchor="middle" fill="#475569" font-size="14">2009</text><text x="257.5" y="243" text-anchor="middle" fill="#172033" font-size="13" font-weight="700">247,309</text><rect x="326" y="273" width="109" height="67" rx="5" fill="#7c3aed"/><text x="380.5" y="368" text-anchor="middle" fill="#475569" font-size="14">2010</text><text x="380.5" y="265" text-anchor="middle" fill="#172033" font-size="13" font-weight="700">184,831</text><rect x="449" y="248" width="109" height="92" rx="5" fill="#7c3aed"/><text x="503.5" y="368" text-anchor="middle" fill="#475569" font-size="14">2011</text><text x="503.5" y="240" text-anchor="middle" fill="#172033" font-size="13" font-weight="700">254,295</text><rect x="572" y="219" width="109" height="121" rx="5" fill="#7c3aed"/><text x="626.5" y="368" text-anchor="middle" fill="#475569" font-size="14">2012</text><text x="626.5" y="211" text-anchor="middle" fill="#172033" font-size="13" font-weight="700">332,579</text><rect x="695" y="241" width="109" height="99" rx="5" fill="#7c3aed"/><text x="749.5" y="368" text-anchor="middle" fill="#475569" font-size="14">2013</text><text x="749.5" y="233" text-anchor="middle" fill="#172033" font-size="13" font-weight="700">274,215</text><rect x="818" y="70" width="109" height="270" rx="5" fill="#7c3aed"/><text x="872.5" y="368" text-anchor="middle" fill="#475569" font-size="14">2014</text><text x="872.5" y="62" text-anchor="middle" fill="#172033" font-size="13" font-weight="700">742,024</text>
</svg>