<svg xmlns="http://www.w3.org/2000/svg" width="1000" height="420" viewBox="0 0 1000 420" role="img" aria-label="Yearly citation mass 2018-2023">
<rect width="100%" height="100%" fill="#ffffff"/>
<text x="32" y="38" fill="#0f172a" font-size="24" font-weight="800">Yearly Citation Mass, 2018-2023</text>
<text x="32" y="60" fill="#64748b" font-size="14">Citation counts among visible selected papers</text>
<line x1="80" y1="340" x2="930" y2="340" stroke="#cbd5e1" stroke-width="2"/>
<rect x="80" y="152" width="130" height="188" rx="5" fill="#7c3aed"/><text x="145.0" y="368" text-anchor="middle" fill="#475569" font-size="14">2018</text><text x="145.0" y="144" text-anchor="middle" fill="#172033" font-size="13" font-weight="700">445,723</text><rect x="224" y="70" width="130" height="270" rx="5" fill="#7c3aed"/><text x="289.0" y="368" text-anchor="middle" fill="#475569" font-size="14">2019</text><text x="289.0" y="62" text-anchor="middle" fill="#172033" font-size="13" font-weight="700">638,014</text><rect x="368" y="156" width="130" height="184" rx="5" fill="#7c3aed"/><text x="433.0" y="368" text-anchor="middle" fill="#475569" font-size="14">2020</text><text x="433.0" y="148" text-anchor="middle" fill="#172033" font-size="13" font-weight="700">436,445</text><rect x="512" y="161" width="130" height="179" rx="5" fill="#7c3aed"/><text x="577.0" y="368" text-anchor="middle" fill="#475569" font-size="14">2021</text><text x="577.0" y="153" text-anchor="middle" fill="#172033" font-size="13" font-weight="700">425,132</text><rect x="656" y="220" width="130" height="120" rx="5" fill="#7c3aed"/><text x="721.0" y="368" text-anchor="middle" fill="#475569" font-size="14">2022</text><text x="721.0" y="212" text-anchor="middle" fill="#172033" font-size="13" font-weight="700">284,273</text><rect x="800" y="199" width="130" height="141" rx="5" fill="#7c3aed"/><text x="865.0" y="368" text-anchor="middle" fill="#475569" font-size="14">2023</text><text x="865.0" y="191" text-anchor="middle" fill="#172033" font-size="13" font-weight="700">334,364</text>
</svg>