<svg xmlns="http://www.w3.org/2000/svg" width="1000" height="420" viewBox="0 0 1000 420" role="img" aria-label="Yearly citation mass 2001-2014">
<rect width="100%" height="100%" fill="#ffffff"/>
<text x="32" y="38" fill="#0f172a" font-size="24" font-weight="800">Yearly Citation Mass, 2001-2014</text>
<text x="32" y="60" fill="#64748b" font-size="14">Citation counts among visible selected papers</text>
<line x1="80" y1="340" x2="930" y2="340" stroke="#cbd5e1" stroke-width="2"/>
<rect x="80" y="268" width="47" height="72" rx="5" fill="#7c3aed"/><text x="103.5" y="368" text-anchor="middle" fill="#475569" font-size="14">2001</text><text x="103.5" y="260" text-anchor="middle" fill="#172033" font-size="13" font-weight="700">199,666</text><rect x="141" y="281" width="47" height="59" rx="5" fill="#7c3aed"/><text x="164.5" y="368" text-anchor="middle" fill="#475569" font-size="14">2002</text><text x="164.5" y="273" text-anchor="middle" fill="#172033" font-size="13" font-weight="700">163,015</text><rect x="202" y="295" width="47" height="45" rx="5" fill="#7c3aed"/><text x="225.5" y="368" text-anchor="middle" fill="#475569" font-size="14">2003</text><text x="225.5" y="287" text-anchor="middle" fill="#172033" font-size="13" font-weight="700">124,417</text><rect x="263" y="289" width="47" height="51" rx="5" fill="#7c3aed"/><text x="286.5" y="368" text-anchor="middle" fill="#475569" font-size="14">2004</text><text x="286.5" y="281" text-anchor="middle" fill="#172033" font-size="13" font-weight="700">142,172</text><rect x="324" y="295" width="47" height="45" rx="5" fill="#7c3aed"/><text x="347.5" y="368" text-anchor="middle" fill="#475569" font-size="14">2005</text><text x="347.5" y="287" text-anchor="middle" fill="#172033" font-size="13" font-weight="700">124,983</text><rect x="385" y="298" width="47" height="42" rx="5" fill="#7c3aed"/><text x="408.5" y="368" text-anchor="middle" fill="#475569" font-size="14">2006</text><text x="408.5" y="290" text-anchor="middle" fill="#172033" font-size="13" font-weight="700">117,674</text><rect x="446" y="294" width="47" height="46" rx="5" fill="#7c3aed"/><text x="469.5" y="368" text-anchor="middle" fill="#475569" font-size="14">2007</text><text x="469.5" y="286" text-anchor="middle" fill="#172033" font-size="13" font-weight="700">128,381</text><rect x="507" y="298" width="47" height="42" rx="5" fill="#7c3aed"/><text x="530.5" y="368" text-anchor="middle" fill="#475569" font-size="14">2008</text><text x="530.5" y="290" text-anchor="middle" fill="#172033" font-size="13" font-weight="700">116,790</text><rect x="568" y="251" width="47" height="89" rx="5" fill="#7c3aed"/><text x="591.5" y="368" text-anchor="middle" fill="#475569" font-size="14">2009</text><text x="591.5" y="243" text-anchor="middle" fill="#172033" font-size="13" font-weight="700">247,309</text><rect x="629" y="273" width="47" height="67" rx="5" fill="#7c3aed"/><text x="652.5" y="368" text-anchor="middle" fill="#475569" font-size="14">2010</text><text x="652.5" y="265" text-anchor="middle" fill="#172033" font-size="13" font-weight="700">184,831</text><rect x="690" y="248" width="47" height="92" rx="5" fill="#7c3aed"/><text x="713.5" y="368" text-anchor="middle" fill="#475569" font-size="14">2011</text><text x="713.5" y="240" text-anchor="middle" fill="#172033" font-size="13" font-weight="700">254,295</text><rect x="751" y="219" width="47" height="121" rx="5" fill="#7c3aed"/><text x="774.5" y="368" text-anchor="middle" fill="#475569" font-size="14">2012</text><text x="774.5" y="211" text-anchor="middle" fill="#172033" font-size="13" font-weight="700">332,579</text><rect x="812" y="241" width="47" height="99" rx="5" fill="#7c3aed"/><text x="835.5" y="368" text-anchor="middle" fill="#475569" font-size="14">2013</text><text x="835.5" y="233" text-anchor="middle" fill="#172033" font-size="13" font-weight="700">274,215</text><rect x="873" y="70" width="47" height="270" rx="5" fill="#7c3aed"/><text x="896.5" y="368" text-anchor="middle" fill="#475569" font-size="14">2014</text><text x="896.5" y="62" text-anchor="middle" fill="#172033" font-size="13" font-weight="700">742,024</text>
</svg>