<svg xmlns="http://www.w3.org/2000/svg" width="1000" height="420" viewBox="0 0 1000 420" role="img" aria-label="Yearly citation mass 2018-2025">
<rect width="100%" height="100%" fill="#ffffff"/>
<text x="32" y="38" fill="#0f172a" font-size="24" font-weight="800">Yearly Citation Mass, 2018-2025</text>
<text x="32" y="60" fill="#64748b" font-size="14">Citation counts among visible selected papers</text>
<line x1="80" y1="340" x2="930" y2="340" stroke="#cbd5e1" stroke-width="2"/>
<rect x="80" y="152" width="94" height="188" rx="5" fill="#7c3aed"/><text x="127.0" y="368" text-anchor="middle" fill="#475569" font-size="14">2018</text><text x="127.0" y="144" text-anchor="middle" fill="#172033" font-size="13" font-weight="700">445,723</text><rect x="188" y="70" width="94" height="270" rx="5" fill="#7c3aed"/><text x="235.0" y="368" text-anchor="middle" fill="#475569" font-size="14">2019</text><text x="235.0" y="62" text-anchor="middle" fill="#172033" font-size="13" font-weight="700">638,014</text><rect x="296" y="156" width="94" height="184" rx="5" fill="#7c3aed"/><text x="343.0" y="368" text-anchor="middle" fill="#475569" font-size="14">2020</text><text x="343.0" y="148" text-anchor="middle" fill="#172033" font-size="13" font-weight="700">436,445</text><rect x="404" y="161" width="94" height="179" rx="5" fill="#7c3aed"/><text x="451.0" y="368" text-anchor="middle" fill="#475569" font-size="14">2021</text><text x="451.0" y="153" text-anchor="middle" fill="#172033" font-size="13" font-weight="700">425,132</text><rect x="512" y="220" width="94" height="120" rx="5" fill="#7c3aed"/><text x="559.0" y="368" text-anchor="middle" fill="#475569" font-size="14">2022</text><text x="559.0" y="212" text-anchor="middle" fill="#172033" font-size="13" font-weight="700">284,273</text><rect x="620" y="199" width="94" height="141" rx="5" fill="#7c3aed"/><text x="667.0" y="368" text-anchor="middle" fill="#475569" font-size="14">2023</text><text x="667.0" y="191" text-anchor="middle" fill="#172033" font-size="13" font-weight="700">334,364</text><rect x="728" y="279" width="94" height="61" rx="5" fill="#7c3aed"/><text x="775.0" y="368" text-anchor="middle" fill="#475569" font-size="14">2024</text><text x="775.0" y="271" text-anchor="middle" fill="#172033" font-size="13" font-weight="700">145,505</text><rect x="836" y="310" width="94" height="30" rx="5" fill="#7c3aed"/><text x="883.0" y="368" text-anchor="middle" fill="#475569" font-size="14">2025</text><text x="883.0" y="302" text-anchor="middle" fill="#172033" font-size="13" font-weight="700">72,745</text>
</svg>