<svg xmlns="http://www.w3.org/2000/svg" width="1000" height="420" viewBox="0 0 1000 420" role="img" aria-label="Yearly citation mass 2001-2026">
<rect width="100%" height="100%" fill="#ffffff"/>
<text x="32" y="38" fill="#0f172a" font-size="24" font-weight="800">Yearly Citation Mass, 2001-2026</text>
<text x="32" y="60" fill="#64748b" font-size="14">Citation counts among visible selected papers</text>
<line x1="80" y1="340" x2="930" y2="340" stroke="#cbd5e1" stroke-width="2"/>
<rect x="80" y="284" width="24" height="56" rx="5" fill="#7c3aed"/><text x="92.0" y="368" text-anchor="middle" fill="#475569" font-size="14">2001</text><text x="92.0" y="276" text-anchor="middle" fill="#172033" font-size="13" font-weight="700">199,666</text><rect x="118" y="295" width="24" height="45" rx="5" fill="#7c3aed"/><text x="130.0" y="368" text-anchor="middle" fill="#475569" font-size="14">2002</text><text x="130.0" y="287" text-anchor="middle" fill="#172033" font-size="13" font-weight="700">163,015</text><rect x="156" y="306" width="24" height="34" rx="5" fill="#7c3aed"/><text x="168.0" y="368" text-anchor="middle" fill="#475569" font-size="14">2003</text><text x="168.0" y="298" text-anchor="middle" fill="#172033" font-size="13" font-weight="700">124,417</text><rect x="194" y="301" width="24" height="39" rx="5" fill="#7c3aed"/><text x="206.0" y="368" text-anchor="middle" fill="#475569" font-size="14">2004</text><text x="206.0" y="293" text-anchor="middle" fill="#172033" font-size="13" font-weight="700">142,172</text><rect x="232" y="305" width="24" height="35" rx="5" fill="#7c3aed"/><text x="244.0" y="368" text-anchor="middle" fill="#475569" font-size="14">2005</text><text x="244.0" y="297" text-anchor="middle" fill="#172033" font-size="13" font-weight="700">124,983</text><rect x="270" y="307" width="24" height="33" rx="5" fill="#7c3aed"/><text x="282.0" y="368" text-anchor="middle" fill="#475569" font-size="14">2006</text><text x="282.0" y="299" text-anchor="middle" fill="#172033" font-size="13" font-weight="700">117,674</text><rect x="308" y="304" width="24" height="36" rx="5" fill="#7c3aed"/><text x="320.0" y="368" text-anchor="middle" fill="#475569" font-size="14">2007</text><text x="320.0" y="296" text-anchor="middle" fill="#172033" font-size="13" font-weight="700">128,381</text><rect x="346" y="308" width="24" height="32" rx="5" fill="#7c3aed"/><text x="358.0" y="368" text-anchor="middle" fill="#475569" font-size="14">2008</text><text x="358.0" y="300" text-anchor="middle" fill="#172033" font-size="13" font-weight="700">116,790</text><rect x="384" y="271" width="24" height="69" rx="5" fill="#7c3aed"/><text x="396.0" y="368" text-anchor="middle" fill="#475569" font-size="14">2009</text><text x="396.0" y="263" text-anchor="middle" fill="#172033" font-size="13" font-weight="700">247,309</text><rect x="422" y="289" width="24" height="51" rx="5" fill="#7c3aed"/><text x="434.0" y="368" text-anchor="middle" fill="#475569" font-size="14">2010</text><text x="434.0" y="281" text-anchor="middle" fill="#172033" font-size="13" font-weight="700">184,831</text><rect x="460" y="269" width="24" height="71" rx="5" fill="#7c3aed"/><text x="472.0" y="368" text-anchor="middle" fill="#475569" font-size="14">2011</text><text x="472.0" y="261" text-anchor="middle" fill="#172033" font-size="13" font-weight="700">254,295</text><rect x="498" y="247" width="24" height="93" rx="5" fill="#7c3aed"/><text x="510.0" y="368" text-anchor="middle" fill="#475569" font-size="14">2012</text><text x="510.0" y="239" text-anchor="middle" fill="#172033" font-size="13" font-weight="700">332,579</text><rect x="536" y="263" width="24" height="77" rx="5" fill="#7c3aed"/><text x="548.0" y="368" text-anchor="middle" fill="#475569" font-size="14">2013</text><text x="548.0" y="255" text-anchor="middle" fill="#172033" font-size="13" font-weight="700">274,215</text><rect x="574" y="132" width="24" height="208" rx="5" fill="#7c3aed"/><text x="586.0" y="368" text-anchor="middle" fill="#475569" font-size="14">2014</text><text x="586.0" y="124" text-anchor="middle" fill="#172033" font-size="13" font-weight="700">742,024</text><rect x="612" y="70" width="24" height="270" rx="5" fill="#7c3aed"/><text x="624.0" y="368" text-anchor="middle" fill="#475569" font-size="14">2015</text><text x="624.0" y="62" text-anchor="middle" fill="#172033" font-size="13" font-weight="700">960,511</text><rect x="650" y="133" width="24" height="207" rx="5" fill="#7c3aed"/><text x="662.0" y="368" text-anchor="middle" fill="#475569" font-size="14">2016</text><text x="662.0" y="125" text-anchor="middle" fill="#172033" font-size="13" font-weight="700">738,490</text><rect x="688" y="123" width="24" height="217" rx="5" fill="#7c3aed"/><text x="700.0" y="368" text-anchor="middle" fill="#475569" font-size="14">2017</text><text x="700.0" y="115" text-anchor="middle" fill="#172033" font-size="13" font-weight="700">775,257</text><rect x="726" y="215" width="24" height="125" rx="5" fill="#7c3aed"/><text x="738.0" y="368" text-anchor="middle" fill="#475569" font-size="14">2018</text><text x="738.0" y="207" text-anchor="middle" fill="#172033" font-size="13" font-weight="700">445,723</text><rect x="764" y="161" width="24" height="179" rx="5" fill="#7c3aed"/><text x="776.0" y="368" text-anchor="middle" fill="#475569" font-size="14">2019</text><text x="776.0" y="153" text-anchor="middle" fill="#172033" font-size="13" font-weight="700">638,014</text><rect x="802" y="218" width="24" height="122" rx="5" fill="#7c3aed"/><text x="814.0" y="368" text-anchor="middle" fill="#475569" font-size="14">2020</text><text x="814.0" y="210" text-anchor="middle" fill="#172033" font-size="13" font-weight="700">436,445</text><rect x="840" y="221" width="24" height="119" rx="5" fill="#7c3aed"/><text x="852.0" y="368" text-anchor="middle" fill="#475569" font-size="14">2021</text><text x="852.0" y="213" text-anchor="middle" fill="#172033" font-size="13" font-weight="700">425,132</text><rect x="878" y="261" width="24" height="79" rx="5" fill="#7c3aed"/><text x="890.0" y="368" text-anchor="middle" fill="#475569" font-size="14">2022</text><text x="890.0" y="253" text-anchor="middle" fill="#172033" font-size="13" font-weight="700">284,273</text><rect x="916" y="247" width="24" height="93" rx="5" fill="#7c3aed"/><text x="928.0" y="368" text-anchor="middle" fill="#475569" font-size="14">2023</text><text x="928.0" y="239" text-anchor="middle" fill="#172033" font-size="13" font-weight="700">334,364</text><rect x="954" y="300" width="24" height="40" rx="5" fill="#7c3aed"/><text x="966.0" y="368" text-anchor="middle" fill="#475569" font-size="14">2024</text><text x="966.0" y="292" text-anchor="middle" fill="#172033" font-size="13" font-weight="700">145,505</text><rect x="992" y="320" width="24" height="20" rx="5" fill="#7c3aed"/><text x="1004.0" y="368" text-anchor="middle" fill="#475569" font-size="14">2025</text><text x="1004.0" y="312" text-anchor="middle" fill="#172033" font-size="13" font-weight="700">72,745</text><rect x="1030" y="339" width="24" height="1" rx="5" fill="#7c3aed"/><text x="1042.0" y="368" text-anchor="middle" fill="#475569" font-size="14">2026</text><text x="1042.0" y="331" text-anchor="middle" fill="#172033" font-size="13" font-weight="700">6,582</text>
</svg>