<svg xmlns="http://www.w3.org/2000/svg" width="1000" height="420" viewBox="0 0 1000 420" role="img" aria-label="Yearly citation mass 2002-2013">
<rect width="100%" height="100%" fill="#ffffff"/>
<text x="32" y="38" fill="#0f172a" font-size="24" font-weight="800">Yearly Citation Mass, 2002-2013</text>
<text x="32" y="60" fill="#64748b" font-size="14">Citation counts among visible selected papers</text>
<line x1="80" y1="340" x2="930" y2="340" stroke="#cbd5e1" stroke-width="2"/>
<rect x="80" y="208" width="58" height="132" rx="5" fill="#7c3aed"/><text x="109.0" y="368" text-anchor="middle" fill="#475569" font-size="14">2002</text><text x="109.0" y="200" text-anchor="middle" fill="#172033" font-size="13" font-weight="700">163,015</text><rect x="152" y="239" width="58" height="101" rx="5" fill="#7c3aed"/><text x="181.0" y="368" text-anchor="middle" fill="#475569" font-size="14">2003</text><text x="181.0" y="231" text-anchor="middle" fill="#172033" font-size="13" font-weight="700">124,417</text><rect x="224" y="225" width="58" height="115" rx="5" fill="#7c3aed"/><text x="253.0" y="368" text-anchor="middle" fill="#475569" font-size="14">2004</text><text x="253.0" y="217" text-anchor="middle" fill="#172033" font-size="13" font-weight="700">142,172</text><rect x="296" y="239" width="58" height="101" rx="5" fill="#7c3aed"/><text x="325.0" y="368" text-anchor="middle" fill="#475569" font-size="14">2005</text><text x="325.0" y="231" text-anchor="middle" fill="#172033" font-size="13" font-weight="700">124,983</text><rect x="368" y="245" width="58" height="95" rx="5" fill="#7c3aed"/><text x="397.0" y="368" text-anchor="middle" fill="#475569" font-size="14">2006</text><text x="397.0" y="237" text-anchor="middle" fill="#172033" font-size="13" font-weight="700">117,674</text><rect x="440" y="236" width="58" height="104" rx="5" fill="#7c3aed"/><text x="469.0" y="368" text-anchor="middle" fill="#475569" font-size="14">2007</text><text x="469.0" y="228" text-anchor="middle" fill="#172033" font-size="13" font-weight="700">128,381</text><rect x="512" y="246" width="58" height="94" rx="5" fill="#7c3aed"/><text x="541.0" y="368" text-anchor="middle" fill="#475569" font-size="14">2008</text><text x="541.0" y="238" text-anchor="middle" fill="#172033" font-size="13" font-weight="700">116,790</text><rect x="584" y="140" width="58" height="200" rx="5" fill="#7c3aed"/><text x="613.0" y="368" text-anchor="middle" fill="#475569" font-size="14">2009</text><text x="613.0" y="132" text-anchor="middle" fill="#172033" font-size="13" font-weight="700">247,309</text><rect x="656" y="190" width="58" height="150" rx="5" fill="#7c3aed"/><text x="685.0" y="368" text-anchor="middle" fill="#475569" font-size="14">2010</text><text x="685.0" y="182" text-anchor="middle" fill="#172033" font-size="13" font-weight="700">184,831</text><rect x="728" y="134" width="58" height="206" rx="5" fill="#7c3aed"/><text x="757.0" y="368" text-anchor="middle" fill="#475569" font-size="14">2011</text><text x="757.0" y="126" text-anchor="middle" fill="#172033" font-size="13" font-weight="700">254,295</text><rect x="800" y="70" width="58" height="270" rx="5" fill="#7c3aed"/><text x="829.0" y="368" text-anchor="middle" fill="#475569" font-size="14">2012</text><text x="829.0" y="62" text-anchor="middle" fill="#172033" font-size="13" font-weight="700">332,579</text><rect x="872" y="118" width="58" height="222" rx="5" fill="#7c3aed"/><text x="901.0" y="368" text-anchor="middle" fill="#475569" font-size="14">2013</text><text x="901.0" y="110" text-anchor="middle" fill="#172033" font-size="13" font-weight="700">274,215</text>
</svg>