<svg xmlns="http://www.w3.org/2000/svg" width="1000" height="420" viewBox="0 0 1000 420" role="img" aria-label="Yearly citation mass 2001-2007">
<rect width="100%" height="100%" fill="#ffffff"/>
<text x="32" y="38" fill="#0f172a" font-size="24" font-weight="800">Yearly Citation Mass, 2001-2007</text>
<text x="32" y="60" fill="#64748b" font-size="14">Citation counts among visible selected papers</text>
<line x1="80" y1="340" x2="930" y2="340" stroke="#cbd5e1" stroke-width="2"/>
<rect x="80" y="70" width="109" height="270" rx="5" fill="#7c3aed"/><text x="134.5" y="368" text-anchor="middle" fill="#475569" font-size="14">2001</text><text x="134.5" y="62" text-anchor="middle" fill="#172033" font-size="13" font-weight="700">199,666</text><rect x="203" y="120" width="109" height="220" rx="5" fill="#7c3aed"/><text x="257.5" y="368" text-anchor="middle" fill="#475569" font-size="14">2002</text><text x="257.5" y="112" text-anchor="middle" fill="#172033" font-size="13" font-weight="700">163,015</text><rect x="326" y="172" width="109" height="168" rx="5" fill="#7c3aed"/><text x="380.5" y="368" text-anchor="middle" fill="#475569" font-size="14">2003</text><text x="380.5" y="164" text-anchor="middle" fill="#172033" font-size="13" font-weight="700">124,417</text><rect x="449" y="148" width="109" height="192" rx="5" fill="#7c3aed"/><text x="503.5" y="368" text-anchor="middle" fill="#475569" font-size="14">2004</text><text x="503.5" y="140" text-anchor="middle" fill="#172033" font-size="13" font-weight="700">142,172</text><rect x="572" y="171" width="109" height="169" rx="5" fill="#7c3aed"/><text x="626.5" y="368" text-anchor="middle" fill="#475569" font-size="14">2005</text><text x="626.5" y="163" text-anchor="middle" fill="#172033" font-size="13" font-weight="700">124,983</text><rect x="695" y="181" width="109" height="159" rx="5" fill="#7c3aed"/><text x="749.5" y="368" text-anchor="middle" fill="#475569" font-size="14">2006</text><text x="749.5" y="173" text-anchor="middle" fill="#172033" font-size="13" font-weight="700">117,674</text><rect x="818" y="167" width="109" height="173" rx="5" fill="#7c3aed"/><text x="872.5" y="368" text-anchor="middle" fill="#475569" font-size="14">2007</text><text x="872.5" y="159" text-anchor="middle" fill="#172033" font-size="13" font-weight="700">128,381</text>
</svg>