<svg xmlns="http://www.w3.org/2000/svg" width="1000" height="420" viewBox="0 0 1000 420" role="img" aria-label="Yearly citation mass 2006-2013">
<rect width="100%" height="100%" fill="#ffffff"/>
<text x="32" y="38" fill="#0f172a" font-size="24" font-weight="800">Yearly Citation Mass, 2006-2013</text>
<text x="32" y="60" fill="#64748b" font-size="14">Citation counts among visible selected papers</text>
<line x1="80" y1="340" x2="930" y2="340" stroke="#cbd5e1" stroke-width="2"/>
<rect x="80" y="245" width="94" height="95" rx="5" fill="#7c3aed"/><text x="127.0" y="368" text-anchor="middle" fill="#475569" font-size="14">2006</text><text x="127.0" y="237" text-anchor="middle" fill="#172033" font-size="13" font-weight="700">117,674</text><rect x="188" y="236" width="94" height="104" rx="5" fill="#7c3aed"/><text x="235.0" y="368" text-anchor="middle" fill="#475569" font-size="14">2007</text><text x="235.0" y="228" text-anchor="middle" fill="#172033" font-size="13" font-weight="700">128,381</text><rect x="296" y="246" width="94" height="94" rx="5" fill="#7c3aed"/><text x="343.0" y="368" text-anchor="middle" fill="#475569" font-size="14">2008</text><text x="343.0" y="238" text-anchor="middle" fill="#172033" font-size="13" font-weight="700">116,790</text><rect x="404" y="140" width="94" height="200" rx="5" fill="#7c3aed"/><text x="451.0" y="368" text-anchor="middle" fill="#475569" font-size="14">2009</text><text x="451.0" y="132" text-anchor="middle" fill="#172033" font-size="13" font-weight="700">247,309</text><rect x="512" y="190" width="94" height="150" rx="5" fill="#7c3aed"/><text x="559.0" y="368" text-anchor="middle" fill="#475569" font-size="14">2010</text><text x="559.0" y="182" text-anchor="middle" fill="#172033" font-size="13" font-weight="700">184,831</text><rect x="620" y="134" width="94" height="206" rx="5" fill="#7c3aed"/><text x="667.0" y="368" text-anchor="middle" fill="#475569" font-size="14">2011</text><text x="667.0" y="126" text-anchor="middle" fill="#172033" font-size="13" font-weight="700">254,295</text><rect x="728" y="70" width="94" height="270" rx="5" fill="#7c3aed"/><text x="775.0" y="368" text-anchor="middle" fill="#475569" font-size="14">2012</text><text x="775.0" y="62" text-anchor="middle" fill="#172033" font-size="13" font-weight="700">332,579</text><rect x="836" y="118" width="94" height="222" rx="5" fill="#7c3aed"/><text x="883.0" y="368" text-anchor="middle" fill="#475569" font-size="14">2013</text><text x="883.0" y="110" text-anchor="middle" fill="#172033" font-size="13" font-weight="700">274,215</text>
</svg>