<svg xmlns="http://www.w3.org/2000/svg" width="1000" height="420" viewBox="0 0 1000 420" role="img" aria-label="Yearly citation mass 2020-2026">
<rect width="100%" height="100%" fill="#ffffff"/>
<text x="32" y="38" fill="#0f172a" font-size="24" font-weight="800">Yearly Citation Mass, All years (2020-2026)</text>
<text x="32" y="60" fill="#64748b" font-size="14">Citation counts among visible selected papers</text>
<line x1="80" y1="340" x2="930" y2="340" stroke="#cbd5e1" stroke-width="2"/>
<rect x="80" y="132" width="109" height="208" rx="5" fill="#7c3aed"/><text x="134.5" y="368" text-anchor="middle" fill="#475569" font-size="14">2020</text><text x="134.5" y="124" text-anchor="middle" fill="#172033" font-size="13" font-weight="700">205,688</text><rect x="203" y="70" width="109" height="270" rx="5" fill="#7c3aed"/><text x="257.5" y="368" text-anchor="middle" fill="#475569" font-size="14">2021</text><text x="257.5" y="62" text-anchor="middle" fill="#172033" font-size="13" font-weight="700">266,905</text><rect x="326" y="188" width="109" height="152" rx="5" fill="#7c3aed"/><text x="380.5" y="368" text-anchor="middle" fill="#475569" font-size="14">2022</text><text x="380.5" y="180" text-anchor="middle" fill="#172033" font-size="13" font-weight="700">150,589</text><rect x="449" y="157" width="109" height="183" rx="5" fill="#7c3aed"/><text x="503.5" y="368" text-anchor="middle" fill="#475569" font-size="14">2023</text><text x="503.5" y="149" text-anchor="middle" fill="#172033" font-size="13" font-weight="700">181,522</text><rect x="572" y="304" width="109" height="36" rx="5" fill="#7c3aed"/><text x="626.5" y="368" text-anchor="middle" fill="#475569" font-size="14">2024</text><text x="626.5" y="296" text-anchor="middle" fill="#172033" font-size="13" font-weight="700">35,822</text><rect x="695" y="320" width="109" height="20" rx="5" fill="#7c3aed"/><text x="749.5" y="368" text-anchor="middle" fill="#475569" font-size="14">2025</text><text x="749.5" y="312" text-anchor="middle" fill="#172033" font-size="13" font-weight="700">20,255</text><rect x="818" y="340" width="109" height="0" rx="5" fill="#7c3aed"/><text x="872.5" y="368" text-anchor="middle" fill="#475569" font-size="14">2026</text>
</svg>