<svg xmlns="http://www.w3.org/2000/svg" width="1000" height="420" viewBox="0 0 1000 420" role="img" aria-label="Yearly citation mass 2005-2014">
<rect width="100%" height="100%" fill="#ffffff"/>
<text x="32" y="38" fill="#0f172a" font-size="24" font-weight="800">Yearly Citation Mass, 2005-2014</text>
<text x="32" y="60" fill="#64748b" font-size="14">Citation counts among visible selected papers</text>
<line x1="80" y1="340" x2="930" y2="340" stroke="#cbd5e1" stroke-width="2"/>
<rect x="80" y="295" width="72" height="45" rx="5" fill="#7c3aed"/><text x="116.0" y="368" text-anchor="middle" fill="#475569" font-size="14">2005</text><text x="116.0" y="287" text-anchor="middle" fill="#172033" font-size="13" font-weight="700">124,983</text><rect x="166" y="298" width="72" height="42" rx="5" fill="#7c3aed"/><text x="202.0" y="368" text-anchor="middle" fill="#475569" font-size="14">2006</text><text x="202.0" y="290" text-anchor="middle" fill="#172033" font-size="13" font-weight="700">117,674</text><rect x="252" y="294" width="72" height="46" rx="5" fill="#7c3aed"/><text x="288.0" y="368" text-anchor="middle" fill="#475569" font-size="14">2007</text><text x="288.0" y="286" text-anchor="middle" fill="#172033" font-size="13" font-weight="700">128,381</text><rect x="338" y="298" width="72" height="42" rx="5" fill="#7c3aed"/><text x="374.0" y="368" text-anchor="middle" fill="#475569" font-size="14">2008</text><text x="374.0" y="290" text-anchor="middle" fill="#172033" font-size="13" font-weight="700">116,790</text><rect x="424" y="251" width="72" height="89" rx="5" fill="#7c3aed"/><text x="460.0" y="368" text-anchor="middle" fill="#475569" font-size="14">2009</text><text x="460.0" y="243" text-anchor="middle" fill="#172033" font-size="13" font-weight="700">247,309</text><rect x="510" y="273" width="72" height="67" rx="5" fill="#7c3aed"/><text x="546.0" y="368" text-anchor="middle" fill="#475569" font-size="14">2010</text><text x="546.0" y="265" text-anchor="middle" fill="#172033" font-size="13" font-weight="700">184,831</text><rect x="596" y="248" width="72" height="92" rx="5" fill="#7c3aed"/><text x="632.0" y="368" text-anchor="middle" fill="#475569" font-size="14">2011</text><text x="632.0" y="240" text-anchor="middle" fill="#172033" font-size="13" font-weight="700">254,295</text><rect x="682" y="219" width="72" height="121" rx="5" fill="#7c3aed"/><text x="718.0" y="368" text-anchor="middle" fill="#475569" font-size="14">2012</text><text x="718.0" y="211" text-anchor="middle" fill="#172033" font-size="13" font-weight="700">332,579</text><rect x="768" y="241" width="72" height="99" rx="5" fill="#7c3aed"/><text x="804.0" y="368" text-anchor="middle" fill="#475569" font-size="14">2013</text><text x="804.0" y="233" text-anchor="middle" fill="#172033" font-size="13" font-weight="700">274,215</text><rect x="854" y="70" width="72" height="270" rx="5" fill="#7c3aed"/><text x="890.0" y="368" text-anchor="middle" fill="#475569" font-size="14">2014</text><text x="890.0" y="62" text-anchor="middle" fill="#172033" font-size="13" font-weight="700">742,024</text>
</svg>