<svg xmlns="http://www.w3.org/2000/svg" width="1000" height="420" viewBox="0 0 1000 420" role="img" aria-label="Yearly citation mass 2007-2025">
<rect width="100%" height="100%" fill="#ffffff"/>
<text x="32" y="38" fill="#0f172a" font-size="24" font-weight="800">Yearly Citation Mass, 2007-2025</text>
<text x="32" y="60" fill="#64748b" font-size="14">Citation counts among visible selected papers</text>
<line x1="80" y1="340" x2="930" y2="340" stroke="#cbd5e1" stroke-width="2"/>
<rect x="80" y="304" width="31" height="36" rx="5" fill="#7c3aed"/><text x="95.5" y="368" text-anchor="middle" fill="#475569" font-size="14">2007</text><text x="95.5" y="296" text-anchor="middle" fill="#172033" font-size="13" font-weight="700">128,381</text><rect x="125" y="308" width="31" height="32" rx="5" fill="#7c3aed"/><text x="140.5" y="368" text-anchor="middle" fill="#475569" font-size="14">2008</text><text x="140.5" y="300" text-anchor="middle" fill="#172033" font-size="13" font-weight="700">116,790</text><rect x="170" y="271" width="31" height="69" rx="5" fill="#7c3aed"/><text x="185.5" y="368" text-anchor="middle" fill="#475569" font-size="14">2009</text><text x="185.5" y="263" text-anchor="middle" fill="#172033" font-size="13" font-weight="700">247,309</text><rect x="215" y="289" width="31" height="51" rx="5" fill="#7c3aed"/><text x="230.5" y="368" text-anchor="middle" fill="#475569" font-size="14">2010</text><text x="230.5" y="281" text-anchor="middle" fill="#172033" font-size="13" font-weight="700">184,831</text><rect x="260" y="269" width="31" height="71" rx="5" fill="#7c3aed"/><text x="275.5" y="368" text-anchor="middle" fill="#475569" font-size="14">2011</text><text x="275.5" y="261" text-anchor="middle" fill="#172033" font-size="13" font-weight="700">254,295</text><rect x="305" y="247" width="31" height="93" rx="5" fill="#7c3aed"/><text x="320.5" y="368" text-anchor="middle" fill="#475569" font-size="14">2012</text><text x="320.5" y="239" text-anchor="middle" fill="#172033" font-size="13" font-weight="700">332,579</text><rect x="350" y="263" width="31" height="77" rx="5" fill="#7c3aed"/><text x="365.5" y="368" text-anchor="middle" fill="#475569" font-size="14">2013</text><text x="365.5" y="255" text-anchor="middle" fill="#172033" font-size="13" font-weight="700">274,215</text><rect x="395" y="132" width="31" height="208" rx="5" fill="#7c3aed"/><text x="410.5" y="368" text-anchor="middle" fill="#475569" font-size="14">2014</text><text x="410.5" y="124" text-anchor="middle" fill="#172033" font-size="13" font-weight="700">742,024</text><rect x="440" y="70" width="31" height="270" rx="5" fill="#7c3aed"/><text x="455.5" y="368" text-anchor="middle" fill="#475569" font-size="14">2015</text><text x="455.5" y="62" text-anchor="middle" fill="#172033" font-size="13" font-weight="700">960,511</text><rect x="485" y="133" width="31" height="207" rx="5" fill="#7c3aed"/><text x="500.5" y="368" text-anchor="middle" fill="#475569" font-size="14">2016</text><text x="500.5" y="125" text-anchor="middle" fill="#172033" font-size="13" font-weight="700">738,490</text><rect x="530" y="123" width="31" height="217" rx="5" fill="#7c3aed"/><text x="545.5" y="368" text-anchor="middle" fill="#475569" font-size="14">2017</text><text x="545.5" y="115" text-anchor="middle" fill="#172033" font-size="13" font-weight="700">775,257</text><rect x="575" y="215" width="31" height="125" rx="5" fill="#7c3aed"/><text x="590.5" y="368" text-anchor="middle" fill="#475569" font-size="14">2018</text><text x="590.5" y="207" text-anchor="middle" fill="#172033" font-size="13" font-weight="700">445,723</text><rect x="620" y="161" width="31" height="179" rx="5" fill="#7c3aed"/><text x="635.5" y="368" text-anchor="middle" fill="#475569" font-size="14">2019</text><text x="635.5" y="153" text-anchor="middle" fill="#172033" font-size="13" font-weight="700">638,014</text><rect x="665" y="218" width="31" height="122" rx="5" fill="#7c3aed"/><text x="680.5" y="368" text-anchor="middle" fill="#475569" font-size="14">2020</text><text x="680.5" y="210" text-anchor="middle" fill="#172033" font-size="13" font-weight="700">436,445</text><rect x="710" y="221" width="31" height="119" rx="5" fill="#7c3aed"/><text x="725.5" y="368" text-anchor="middle" fill="#475569" font-size="14">2021</text><text x="725.5" y="213" text-anchor="middle" fill="#172033" font-size="13" font-weight="700">425,132</text><rect x="755" y="261" width="31" height="79" rx="5" fill="#7c3aed"/><text x="770.5" y="368" text-anchor="middle" fill="#475569" font-size="14">2022</text><text x="770.5" y="253" text-anchor="middle" fill="#172033" font-size="13" font-weight="700">284,273</text><rect x="800" y="247" width="31" height="93" rx="5" fill="#7c3aed"/><text x="815.5" y="368" text-anchor="middle" fill="#475569" font-size="14">2023</text><text x="815.5" y="239" text-anchor="middle" fill="#172033" font-size="13" font-weight="700">334,364</text><rect x="845" y="300" width="31" height="40" rx="5" fill="#7c3aed"/><text x="860.5" y="368" text-anchor="middle" fill="#475569" font-size="14">2024</text><text x="860.5" y="292" text-anchor="middle" fill="#172033" font-size="13" font-weight="700">145,505</text><rect x="890" y="320" width="31" height="20" rx="5" fill="#7c3aed"/><text x="905.5" y="368" text-anchor="middle" fill="#475569" font-size="14">2025</text><text x="905.5" y="312" text-anchor="middle" fill="#172033" font-size="13" font-weight="700">72,745</text>
</svg>