<svg xmlns="http://www.w3.org/2000/svg" width="1000" height="420" viewBox="0 0 1000 420" role="img" aria-label="Yearly citation mass 2020-2026">
<rect width="100%" height="100%" fill="#ffffff"/>
<text x="32" y="38" fill="#0f172a" font-size="24" font-weight="800">Yearly Citation Mass, All years (2020-2026)</text>
<text x="32" y="60" fill="#64748b" font-size="14">Citation counts among visible selected papers</text>
<line x1="80" y1="340" x2="930" y2="340" stroke="#cbd5e1" stroke-width="2"/>
<rect x="80" y="74" width="109" height="266" rx="5" fill="#7c3aed"/><text x="134.5" y="368" text-anchor="middle" fill="#475569" font-size="14">2020</text><text x="134.5" y="66" text-anchor="middle" fill="#172033" font-size="13" font-weight="700">384,464</text><rect x="203" y="70" width="109" height="270" rx="5" fill="#7c3aed"/><text x="257.5" y="368" text-anchor="middle" fill="#475569" font-size="14">2021</text><text x="257.5" y="62" text-anchor="middle" fill="#172033" font-size="13" font-weight="700">389,229</text><rect x="326" y="150" width="109" height="190" rx="5" fill="#7c3aed"/><text x="380.5" y="368" text-anchor="middle" fill="#475569" font-size="14">2022</text><text x="380.5" y="142" text-anchor="middle" fill="#172033" font-size="13" font-weight="700">274,691</text><rect x="449" y="119" width="109" height="221" rx="5" fill="#7c3aed"/><text x="503.5" y="368" text-anchor="middle" fill="#475569" font-size="14">2023</text><text x="503.5" y="111" text-anchor="middle" fill="#172033" font-size="13" font-weight="700">319,073</text><rect x="572" y="244" width="109" height="96" rx="5" fill="#7c3aed"/><text x="626.5" y="368" text-anchor="middle" fill="#475569" font-size="14">2024</text><text x="626.5" y="236" text-anchor="middle" fill="#172033" font-size="13" font-weight="700">138,468</text><rect x="695" y="290" width="109" height="50" rx="5" fill="#7c3aed"/><text x="749.5" y="368" text-anchor="middle" fill="#475569" font-size="14">2025</text><text x="749.5" y="282" text-anchor="middle" fill="#172033" font-size="13" font-weight="700">72,294</text><rect x="818" y="336" width="109" height="4" rx="5" fill="#7c3aed"/><text x="872.5" y="368" text-anchor="middle" fill="#475569" font-size="14">2026</text><text x="872.5" y="328" text-anchor="middle" fill="#172033" font-size="13" font-weight="700">6,380</text>
</svg>